<?xml version="1.0" encoding="utf-8" standalone="no"?>
<!DOCTYPE svg PUBLIC "-//W3C//DTD SVG 1.1//EN"
  "http://www.w3.org/Graphics/SVG/1.1/DTD/svg11.dtd">
<svg xmlns:xlink="http://www.w3.org/1999/xlink" width="845.824544pt" height="312.114637pt" viewBox="0 0 845.824544 312.114637" xmlns="http://www.w3.org/2000/svg" version="1.1">
 <metadata>
  <rdf:RDF xmlns:dc="http://purl.org/dc/elements/1.1/" xmlns:cc="http://creativecommons.org/ns#" xmlns:rdf="http://www.w3.org/1999/02/22-rdf-syntax-ns#">
   <cc:Work>
    <dc:type rdf:resource="http://purl.org/dc/dcmitype/StillImage"/>
    <dc:date>2026-04-23T13:06:22.302812</dc:date>
    <dc:format>image/svg+xml</dc:format>
    <dc:creator>
     <cc:Agent>
      <dc:title>Matplotlib v3.10.8, https://matplotlib.org/</dc:title>
     </cc:Agent>
    </dc:creator>
   </cc:Work>
  </rdf:RDF>
 </metadata>
 <defs>
  <style type="text/css">*{stroke-linejoin: round; stroke-linecap: butt}</style>
 </defs>
 <g id="figure_1">
  <g id="patch_1">
   <path d="M 0 312.114637 
L 845.824544 312.114637 
L 845.824544 0 
L 0 0 
z
" style="fill: #ffffff"/>
  </g>
  <g id="axes_1">
   <g id="patch_2">
    <path d="M 43.78125 248.154875 
L 832.982035 248.154875 
L 832.982035 22.798125 
L 43.78125 22.798125 
z
" style="fill: #ffffff"/>
   </g>
   <g id="patch_3">
    <path d="M 79.654013 248.154875 
L 144.877218 248.154875 
L 144.877218 54.939439 
L 79.654013 54.939439 
z
" clip-path="url(#pd1bffdb19f)" style="fill: #8c564b"/>
   </g>
   <g id="patch_4">
    <path d="M 161.18302 248.154875 
L 226.406225 248.154875 
L 226.406225 51.664086 
L 161.18302 51.664086 
z
" clip-path="url(#pd1bffdb19f)" style="fill: #8c564b"/>
   </g>
   <g id="patch_5">
    <path d="M 242.712026 248.154875 
L 307.935232 248.154875 
L 307.935232 53.093758 
L 242.712026 53.093758 
z
" clip-path="url(#pd1bffdb19f)" style="fill: #8c564b"/>
   </g>
   <g id="patch_6">
    <path d="M 324.241033 248.154875 
L 389.464239 248.154875 
L 389.464239 47.902335 
L 324.241033 47.902335 
z
" clip-path="url(#pd1bffdb19f)" style="fill: #8c564b"/>
   </g>
   <g id="patch_7">
    <path d="M 405.77004 248.154875 
L 470.993245 248.154875 
L 470.993245 45.775636 
L 405.77004 45.775636 
z
" clip-path="url(#pd1bffdb19f)" style="fill: #8c564b"/>
   </g>
   <g id="patch_8">
    <path d="M 487.299047 248.154875 
L 552.522252 248.154875 
L 552.522252 37.697447 
L 487.299047 37.697447 
z
" clip-path="url(#pd1bffdb19f)" style="fill: #8c564b"/>
   </g>
   <g id="patch_9">
    <path d="M 568.828053 248.154875 
L 634.051259 248.154875 
L 634.051259 57.95466 
L 568.828053 57.95466 
z
" clip-path="url(#pd1bffdb19f)" style="fill: #8c564b"/>
   </g>
   <g id="patch_10">
    <path d="M 650.35706 248.154875 
L 715.580265 248.154875 
L 715.580265 64.5175 
L 650.35706 64.5175 
z
" clip-path="url(#pd1bffdb19f)" style="fill: #8c564b"/>
   </g>
   <g id="patch_11">
    <path d="M 731.886067 248.154875 
L 797.109272 248.154875 
L 797.109272 62.667793 
L 731.886067 62.667793 
z
" clip-path="url(#pd1bffdb19f)" style="fill: #8c564b"/>
   </g>
   <g id="patch_12">
    <path d="M 79.654013 54.939439 
L 144.877218 54.939439 
L 144.877218 22.798125 
L 79.654013 22.798125 
z
" clip-path="url(#pd1bffdb19f)" style="fill: #ff7f0e"/>
   </g>
   <g id="patch_13">
    <path d="M 161.18302 51.664086 
L 226.406225 51.664086 
L 226.406225 22.798125 
L 161.18302 22.798125 
z
" clip-path="url(#pd1bffdb19f)" style="fill: #ff7f0e"/>
   </g>
   <g id="patch_14">
    <path d="M 242.712026 53.093758 
L 307.935232 53.093758 
L 307.935232 22.798125 
L 242.712026 22.798125 
z
" clip-path="url(#pd1bffdb19f)" style="fill: #ff7f0e"/>
   </g>
   <g id="patch_15">
    <path d="M 324.241033 47.902335 
L 389.464239 47.902335 
L 389.464239 22.798125 
L 324.241033 22.798125 
z
" clip-path="url(#pd1bffdb19f)" style="fill: #ff7f0e"/>
   </g>
   <g id="patch_16">
    <path d="M 405.77004 45.775636 
L 470.993245 45.775636 
L 470.993245 22.798125 
L 405.77004 22.798125 
z
" clip-path="url(#pd1bffdb19f)" style="fill: #ff7f0e"/>
   </g>
   <g id="patch_17">
    <path d="M 487.299047 37.697447 
L 552.522252 37.697447 
L 552.522252 22.798125 
L 487.299047 22.798125 
z
" clip-path="url(#pd1bffdb19f)" style="fill: #ff7f0e"/>
   </g>
   <g id="patch_18">
    <path d="M 568.828053 57.95466 
L 634.051259 57.95466 
L 634.051259 22.798125 
L 568.828053 22.798125 
z
" clip-path="url(#pd1bffdb19f)" style="fill: #ff7f0e"/>
   </g>
   <g id="patch_19">
    <path d="M 650.35706 64.5175 
L 715.580265 64.5175 
L 715.580265 22.798125 
L 650.35706 22.798125 
z
" clip-path="url(#pd1bffdb19f)" style="fill: #ff7f0e"/>
   </g>
   <g id="patch_20">
    <path d="M 731.886067 62.667793 
L 797.109272 62.667793 
L 797.109272 22.798125 
L 731.886067 22.798125 
z
" clip-path="url(#pd1bffdb19f)" style="fill: #ff7f0e"/>
   </g>
   <g id="matplotlib.axis_1">
    <g id="xtick_1">
     <g id="line2d_1">
      <defs>
       <path id="m9b640b99b5" d="M 0 0 
L 0 3.5 
" style="stroke: #000000; stroke-width: 0.8"/>
      </defs>
      <g>
       <use xlink:href="#m9b640b99b5" x="112.265616" y="248.154875" style="stroke: #000000; stroke-width: 0.8"/>
      </g>
     </g>
     <g id="text_1">
      <!-- Oczywiście! woda 100°C -->
      <g style="fill: #d62728" transform="translate(62.928741 261.553625) scale(0.08 -0.08)">
       <defs>
        <path id="DejaVuSans-4f" d="M 2522 4238 
Q 1834 4238 1429 3725 
Q 1025 3213 1025 2328 
Q 1025 1447 1429 934 
Q 1834 422 2522 422 
Q 3209 422 3611 934 
Q 4013 1447 4013 2328 
Q 4013 3213 3611 3725 
Q 3209 4238 2522 4238 
z
M 2522 4750 
Q 3503 4750 4090 4092 
Q 4678 3434 4678 2328 
Q 4678 1225 4090 567 
Q 3503 -91 2522 -91 
Q 1538 -91 948 565 
Q 359 1222 359 2328 
Q 359 3434 948 4092 
Q 1538 4750 2522 4750 
z
" transform="scale(0.015625)"/>
        <path id="DejaVuSans-63" d="M 3122 3366 
L 3122 2828 
Q 2878 2963 2633 3030 
Q 2388 3097 2138 3097 
Q 1578 3097 1268 2742 
Q 959 2388 959 1747 
Q 959 1106 1268 751 
Q 1578 397 2138 397 
Q 2388 397 2633 464 
Q 2878 531 3122 666 
L 3122 134 
Q 2881 22 2623 -34 
Q 2366 -91 2075 -91 
Q 1284 -91 818 406 
Q 353 903 353 1747 
Q 353 2603 823 3093 
Q 1294 3584 2113 3584 
Q 2378 3584 2631 3529 
Q 2884 3475 3122 3366 
z
" transform="scale(0.015625)"/>
        <path id="DejaVuSans-7a" d="M 353 3500 
L 3084 3500 
L 3084 2975 
L 922 459 
L 3084 459 
L 3084 0 
L 275 0 
L 275 525 
L 2438 3041 
L 353 3041 
L 353 3500 
z
" transform="scale(0.015625)"/>
        <path id="DejaVuSans-79" d="M 2059 -325 
Q 1816 -950 1584 -1140 
Q 1353 -1331 966 -1331 
L 506 -1331 
L 506 -850 
L 844 -850 
Q 1081 -850 1212 -737 
Q 1344 -625 1503 -206 
L 1606 56 
L 191 3500 
L 800 3500 
L 1894 763 
L 2988 3500 
L 3597 3500 
L 2059 -325 
z
" transform="scale(0.015625)"/>
        <path id="DejaVuSans-77" d="M 269 3500 
L 844 3500 
L 1563 769 
L 2278 3500 
L 2956 3500 
L 3675 769 
L 4391 3500 
L 4966 3500 
L 4050 0 
L 3372 0 
L 2619 2869 
L 1863 0 
L 1184 0 
L 269 3500 
z
" transform="scale(0.015625)"/>
        <path id="DejaVuSans-69" d="M 603 3500 
L 1178 3500 
L 1178 0 
L 603 0 
L 603 3500 
z
M 603 4863 
L 1178 4863 
L 1178 4134 
L 603 4134 
L 603 4863 
z
" transform="scale(0.015625)"/>
        <path id="DejaVuSans-15b" d="M 2242 5119 
L 2864 5119 
L 1846 3944 
L 1367 3944 
L 2242 5119 
z
M 2834 3397 
L 2834 2853 
Q 2591 2978 2328 3040 
Q 2066 3103 1784 3103 
Q 1356 3103 1142 2972 
Q 928 2841 928 2578 
Q 928 2378 1081 2264 
Q 1234 2150 1697 2047 
L 1894 2003 
Q 2506 1872 2764 1633 
Q 3022 1394 3022 966 
Q 3022 478 2636 193 
Q 2250 -91 1575 -91 
Q 1294 -91 989 -36 
Q 684 19 347 128 
L 347 722 
Q 666 556 975 473 
Q 1284 391 1588 391 
Q 1994 391 2212 530 
Q 2431 669 2431 922 
Q 2431 1156 2273 1281 
Q 2116 1406 1581 1522 
L 1381 1569 
Q 847 1681 609 1914 
Q 372 2147 372 2553 
Q 372 3047 722 3315 
Q 1072 3584 1716 3584 
Q 2034 3584 2315 3537 
Q 2597 3491 2834 3397 
z
" transform="scale(0.015625)"/>
        <path id="DejaVuSans-65" d="M 3597 1894 
L 3597 1613 
L 953 1613 
Q 991 1019 1311 708 
Q 1631 397 2203 397 
Q 2534 397 2845 478 
Q 3156 559 3463 722 
L 3463 178 
Q 3153 47 2828 -22 
Q 2503 -91 2169 -91 
Q 1331 -91 842 396 
Q 353 884 353 1716 
Q 353 2575 817 3079 
Q 1281 3584 2069 3584 
Q 2775 3584 3186 3129 
Q 3597 2675 3597 1894 
z
M 3022 2063 
Q 3016 2534 2758 2815 
Q 2500 3097 2075 3097 
Q 1594 3097 1305 2825 
Q 1016 2553 972 2059 
L 3022 2063 
z
" transform="scale(0.015625)"/>
        <path id="DejaVuSans-21" d="M 966 794 
L 1600 794 
L 1600 0 
L 966 0 
L 966 794 
z
M 966 4666 
L 1600 4666 
L 1600 2619 
L 1538 1503 
L 1031 1503 
L 966 2619 
L 966 4666 
z
" transform="scale(0.015625)"/>
        <path id="DejaVuSans-20" transform="scale(0.015625)"/>
        <path id="DejaVuSans-6f" d="M 1959 3097 
Q 1497 3097 1228 2736 
Q 959 2375 959 1747 
Q 959 1119 1226 758 
Q 1494 397 1959 397 
Q 2419 397 2687 759 
Q 2956 1122 2956 1747 
Q 2956 2369 2687 2733 
Q 2419 3097 1959 3097 
z
M 1959 3584 
Q 2709 3584 3137 3096 
Q 3566 2609 3566 1747 
Q 3566 888 3137 398 
Q 2709 -91 1959 -91 
Q 1206 -91 779 398 
Q 353 888 353 1747 
Q 353 2609 779 3096 
Q 1206 3584 1959 3584 
z
" transform="scale(0.015625)"/>
        <path id="DejaVuSans-64" d="M 2906 2969 
L 2906 4863 
L 3481 4863 
L 3481 0 
L 2906 0 
L 2906 525 
Q 2725 213 2448 61 
Q 2172 -91 1784 -91 
Q 1150 -91 751 415 
Q 353 922 353 1747 
Q 353 2572 751 3078 
Q 1150 3584 1784 3584 
Q 2172 3584 2448 3432 
Q 2725 3281 2906 2969 
z
M 947 1747 
Q 947 1113 1208 752 
Q 1469 391 1925 391 
Q 2381 391 2643 752 
Q 2906 1113 2906 1747 
Q 2906 2381 2643 2742 
Q 2381 3103 1925 3103 
Q 1469 3103 1208 2742 
Q 947 2381 947 1747 
z
" transform="scale(0.015625)"/>
        <path id="DejaVuSans-61" d="M 2194 1759 
Q 1497 1759 1228 1600 
Q 959 1441 959 1056 
Q 959 750 1161 570 
Q 1363 391 1709 391 
Q 2188 391 2477 730 
Q 2766 1069 2766 1631 
L 2766 1759 
L 2194 1759 
z
M 3341 1997 
L 3341 0 
L 2766 0 
L 2766 531 
Q 2569 213 2275 61 
Q 1981 -91 1556 -91 
Q 1019 -91 701 211 
Q 384 513 384 1019 
Q 384 1609 779 1909 
Q 1175 2209 1959 2209 
L 2766 2209 
L 2766 2266 
Q 2766 2663 2505 2880 
Q 2244 3097 1772 3097 
Q 1472 3097 1187 3025 
Q 903 2953 641 2809 
L 641 3341 
Q 956 3463 1253 3523 
Q 1550 3584 1831 3584 
Q 2591 3584 2966 3190 
Q 3341 2797 3341 1997 
z
" transform="scale(0.015625)"/>
        <path id="DejaVuSans-31" d="M 794 531 
L 1825 531 
L 1825 4091 
L 703 3866 
L 703 4441 
L 1819 4666 
L 2450 4666 
L 2450 531 
L 3481 531 
L 3481 0 
L 794 0 
L 794 531 
z
" transform="scale(0.015625)"/>
        <path id="DejaVuSans-30" d="M 2034 4250 
Q 1547 4250 1301 3770 
Q 1056 3291 1056 2328 
Q 1056 1369 1301 889 
Q 1547 409 2034 409 
Q 2525 409 2770 889 
Q 3016 1369 3016 2328 
Q 3016 3291 2770 3770 
Q 2525 4250 2034 4250 
z
M 2034 4750 
Q 2819 4750 3233 4129 
Q 3647 3509 3647 2328 
Q 3647 1150 3233 529 
Q 2819 -91 2034 -91 
Q 1250 -91 836 529 
Q 422 1150 422 2328 
Q 422 3509 836 4129 
Q 1250 4750 2034 4750 
z
" transform="scale(0.015625)"/>
        <path id="DejaVuSans-b0" d="M 1600 4347 
Q 1350 4347 1178 4173 
Q 1006 4000 1006 3750 
Q 1006 3503 1178 3333 
Q 1350 3163 1600 3163 
Q 1850 3163 2022 3333 
Q 2194 3503 2194 3750 
Q 2194 3997 2020 4172 
Q 1847 4347 1600 4347 
z
M 1600 4750 
Q 1800 4750 1984 4673 
Q 2169 4597 2303 4453 
Q 2447 4313 2519 4134 
Q 2591 3956 2591 3750 
Q 2591 3338 2302 3052 
Q 2013 2766 1594 2766 
Q 1172 2766 890 3047 
Q 609 3328 609 3750 
Q 609 4169 896 4459 
Q 1184 4750 1600 4750 
z
" transform="scale(0.015625)"/>
        <path id="DejaVuSans-43" d="M 4122 4306 
L 4122 3641 
Q 3803 3938 3442 4084 
Q 3081 4231 2675 4231 
Q 1875 4231 1450 3742 
Q 1025 3253 1025 2328 
Q 1025 1406 1450 917 
Q 1875 428 2675 428 
Q 3081 428 3442 575 
Q 3803 722 4122 1019 
L 4122 359 
Q 3791 134 3420 21 
Q 3050 -91 2638 -91 
Q 1578 -91 968 557 
Q 359 1206 359 2328 
Q 359 3453 968 4101 
Q 1578 4750 2638 4750 
Q 3056 4750 3426 4639 
Q 3797 4528 4122 4306 
z
" transform="scale(0.015625)"/>
       </defs>
       <use xlink:href="#DejaVuSans-4f"/>
       <use xlink:href="#DejaVuSans-63" transform="translate(78.710938 0)"/>
       <use xlink:href="#DejaVuSans-7a" transform="translate(133.691406 0)"/>
       <use xlink:href="#DejaVuSans-79" transform="translate(186.181641 0)"/>
       <use xlink:href="#DejaVuSans-77" transform="translate(245.361328 0)"/>
       <use xlink:href="#DejaVuSans-69" transform="translate(327.148438 0)"/>
       <use xlink:href="#DejaVuSans-15b" transform="translate(354.931641 0)"/>
       <use xlink:href="#DejaVuSans-63" transform="translate(407.03125 0)"/>
       <use xlink:href="#DejaVuSans-69" transform="translate(462.011719 0)"/>
       <use xlink:href="#DejaVuSans-65" transform="translate(489.794922 0)"/>
       <use xlink:href="#DejaVuSans-21" transform="translate(551.318359 0)"/>
       <use xlink:href="#DejaVuSans-20" transform="translate(591.40625 0)"/>
       <use xlink:href="#DejaVuSans-77" transform="translate(623.193359 0)"/>
       <use xlink:href="#DejaVuSans-6f" transform="translate(704.980469 0)"/>
       <use xlink:href="#DejaVuSans-64" transform="translate(766.162109 0)"/>
       <use xlink:href="#DejaVuSans-61" transform="translate(829.638672 0)"/>
       <use xlink:href="#DejaVuSans-20" transform="translate(890.917969 0)"/>
       <use xlink:href="#DejaVuSans-31" transform="translate(922.705078 0)"/>
       <use xlink:href="#DejaVuSans-30" transform="translate(986.328125 0)"/>
       <use xlink:href="#DejaVuSans-30" transform="translate(1049.951172 0)"/>
       <use xlink:href="#DejaVuSans-b0" transform="translate(1113.574219 0)"/>
       <use xlink:href="#DejaVuSans-43" transform="translate(1163.574219 0)"/>
      </g>
      <!-- [JSON] -->
      <g style="fill: #d62728" transform="translate(99.283741 270.511875) scale(0.08 -0.08)">
       <defs>
        <path id="DejaVuSans-5b" d="M 550 4863 
L 1875 4863 
L 1875 4416 
L 1125 4416 
L 1125 -397 
L 1875 -397 
L 1875 -844 
L 550 -844 
L 550 4863 
z
" transform="scale(0.015625)"/>
        <path id="DejaVuSans-4a" d="M 628 4666 
L 1259 4666 
L 1259 325 
Q 1259 -519 939 -900 
Q 619 -1281 -91 -1281 
L -331 -1281 
L -331 -750 
L -134 -750 
Q 284 -750 456 -515 
Q 628 -281 628 325 
L 628 4666 
z
" transform="scale(0.015625)"/>
        <path id="DejaVuSans-53" d="M 3425 4513 
L 3425 3897 
Q 3066 4069 2747 4153 
Q 2428 4238 2131 4238 
Q 1616 4238 1336 4038 
Q 1056 3838 1056 3469 
Q 1056 3159 1242 3001 
Q 1428 2844 1947 2747 
L 2328 2669 
Q 3034 2534 3370 2195 
Q 3706 1856 3706 1288 
Q 3706 609 3251 259 
Q 2797 -91 1919 -91 
Q 1588 -91 1214 -16 
Q 841 59 441 206 
L 441 856 
Q 825 641 1194 531 
Q 1563 422 1919 422 
Q 2459 422 2753 634 
Q 3047 847 3047 1241 
Q 3047 1584 2836 1778 
Q 2625 1972 2144 2069 
L 1759 2144 
Q 1053 2284 737 2584 
Q 422 2884 422 3419 
Q 422 4038 858 4394 
Q 1294 4750 2059 4750 
Q 2388 4750 2728 4690 
Q 3069 4631 3425 4513 
z
" transform="scale(0.015625)"/>
        <path id="DejaVuSans-4e" d="M 628 4666 
L 1478 4666 
L 3547 763 
L 3547 4666 
L 4159 4666 
L 4159 0 
L 3309 0 
L 1241 3903 
L 1241 0 
L 628 0 
L 628 4666 
z
" transform="scale(0.015625)"/>
        <path id="DejaVuSans-5d" d="M 1947 4863 
L 1947 -844 
L 622 -844 
L 622 -397 
L 1369 -397 
L 1369 4416 
L 622 4416 
L 622 4863 
L 1947 4863 
z
" transform="scale(0.015625)"/>
       </defs>
       <use xlink:href="#DejaVuSans-5b"/>
       <use xlink:href="#DejaVuSans-4a" transform="translate(39.013672 0)"/>
       <use xlink:href="#DejaVuSans-53" transform="translate(68.505859 0)"/>
       <use xlink:href="#DejaVuSans-4f" transform="translate(131.982422 0)"/>
       <use xlink:href="#DejaVuSans-4e" transform="translate(210.693359 0)"/>
       <use xlink:href="#DejaVuSans-5d" transform="translate(285.498047 0)"/>
      </g>
     </g>
    </g>
    <g id="xtick_2">
     <g id="line2d_2">
      <g>
       <use xlink:href="#m9b640b99b5" x="193.794622" y="248.154875" style="stroke: #000000; stroke-width: 0.8"/>
      </g>
     </g>
     <g id="text_2">
      <!-- Oczywiście! Everest 8848m -->
      <g style="fill: #d62728" transform="translate(138.495247 261.553625) scale(0.08 -0.08)">
       <defs>
        <path id="DejaVuSans-45" d="M 628 4666 
L 3578 4666 
L 3578 4134 
L 1259 4134 
L 1259 2753 
L 3481 2753 
L 3481 2222 
L 1259 2222 
L 1259 531 
L 3634 531 
L 3634 0 
L 628 0 
L 628 4666 
z
" transform="scale(0.015625)"/>
        <path id="DejaVuSans-76" d="M 191 3500 
L 800 3500 
L 1894 563 
L 2988 3500 
L 3597 3500 
L 2284 0 
L 1503 0 
L 191 3500 
z
" transform="scale(0.015625)"/>
        <path id="DejaVuSans-72" d="M 2631 2963 
Q 2534 3019 2420 3045 
Q 2306 3072 2169 3072 
Q 1681 3072 1420 2755 
Q 1159 2438 1159 1844 
L 1159 0 
L 581 0 
L 581 3500 
L 1159 3500 
L 1159 2956 
Q 1341 3275 1631 3429 
Q 1922 3584 2338 3584 
Q 2397 3584 2469 3576 
Q 2541 3569 2628 3553 
L 2631 2963 
z
" transform="scale(0.015625)"/>
        <path id="DejaVuSans-73" d="M 2834 3397 
L 2834 2853 
Q 2591 2978 2328 3040 
Q 2066 3103 1784 3103 
Q 1356 3103 1142 2972 
Q 928 2841 928 2578 
Q 928 2378 1081 2264 
Q 1234 2150 1697 2047 
L 1894 2003 
Q 2506 1872 2764 1633 
Q 3022 1394 3022 966 
Q 3022 478 2636 193 
Q 2250 -91 1575 -91 
Q 1294 -91 989 -36 
Q 684 19 347 128 
L 347 722 
Q 666 556 975 473 
Q 1284 391 1588 391 
Q 1994 391 2212 530 
Q 2431 669 2431 922 
Q 2431 1156 2273 1281 
Q 2116 1406 1581 1522 
L 1381 1569 
Q 847 1681 609 1914 
Q 372 2147 372 2553 
Q 372 3047 722 3315 
Q 1072 3584 1716 3584 
Q 2034 3584 2315 3537 
Q 2597 3491 2834 3397 
z
" transform="scale(0.015625)"/>
        <path id="DejaVuSans-74" d="M 1172 4494 
L 1172 3500 
L 2356 3500 
L 2356 3053 
L 1172 3053 
L 1172 1153 
Q 1172 725 1289 603 
Q 1406 481 1766 481 
L 2356 481 
L 2356 0 
L 1766 0 
Q 1100 0 847 248 
Q 594 497 594 1153 
L 594 3053 
L 172 3053 
L 172 3500 
L 594 3500 
L 594 4494 
L 1172 4494 
z
" transform="scale(0.015625)"/>
        <path id="DejaVuSans-38" d="M 2034 2216 
Q 1584 2216 1326 1975 
Q 1069 1734 1069 1313 
Q 1069 891 1326 650 
Q 1584 409 2034 409 
Q 2484 409 2743 651 
Q 3003 894 3003 1313 
Q 3003 1734 2745 1975 
Q 2488 2216 2034 2216 
z
M 1403 2484 
Q 997 2584 770 2862 
Q 544 3141 544 3541 
Q 544 4100 942 4425 
Q 1341 4750 2034 4750 
Q 2731 4750 3128 4425 
Q 3525 4100 3525 3541 
Q 3525 3141 3298 2862 
Q 3072 2584 2669 2484 
Q 3125 2378 3379 2068 
Q 3634 1759 3634 1313 
Q 3634 634 3220 271 
Q 2806 -91 2034 -91 
Q 1263 -91 848 271 
Q 434 634 434 1313 
Q 434 1759 690 2068 
Q 947 2378 1403 2484 
z
M 1172 3481 
Q 1172 3119 1398 2916 
Q 1625 2713 2034 2713 
Q 2441 2713 2670 2916 
Q 2900 3119 2900 3481 
Q 2900 3844 2670 4047 
Q 2441 4250 2034 4250 
Q 1625 4250 1398 4047 
Q 1172 3844 1172 3481 
z
" transform="scale(0.015625)"/>
        <path id="DejaVuSans-34" d="M 2419 4116 
L 825 1625 
L 2419 1625 
L 2419 4116 
z
M 2253 4666 
L 3047 4666 
L 3047 1625 
L 3713 1625 
L 3713 1100 
L 3047 1100 
L 3047 0 
L 2419 0 
L 2419 1100 
L 313 1100 
L 313 1709 
L 2253 4666 
z
" transform="scale(0.015625)"/>
        <path id="DejaVuSans-6d" d="M 3328 2828 
Q 3544 3216 3844 3400 
Q 4144 3584 4550 3584 
Q 5097 3584 5394 3201 
Q 5691 2819 5691 2113 
L 5691 0 
L 5113 0 
L 5113 2094 
Q 5113 2597 4934 2840 
Q 4756 3084 4391 3084 
Q 3944 3084 3684 2787 
Q 3425 2491 3425 1978 
L 3425 0 
L 2847 0 
L 2847 2094 
Q 2847 2600 2669 2842 
Q 2491 3084 2119 3084 
Q 1678 3084 1418 2786 
Q 1159 2488 1159 1978 
L 1159 0 
L 581 0 
L 581 3500 
L 1159 3500 
L 1159 2956 
Q 1356 3278 1631 3431 
Q 1906 3584 2284 3584 
Q 2666 3584 2933 3390 
Q 3200 3197 3328 2828 
z
" transform="scale(0.015625)"/>
       </defs>
       <use xlink:href="#DejaVuSans-4f"/>
       <use xlink:href="#DejaVuSans-63" transform="translate(78.710938 0)"/>
       <use xlink:href="#DejaVuSans-7a" transform="translate(133.691406 0)"/>
       <use xlink:href="#DejaVuSans-79" transform="translate(186.181641 0)"/>
       <use xlink:href="#DejaVuSans-77" transform="translate(245.361328 0)"/>
       <use xlink:href="#DejaVuSans-69" transform="translate(327.148438 0)"/>
       <use xlink:href="#DejaVuSans-15b" transform="translate(354.931641 0)"/>
       <use xlink:href="#DejaVuSans-63" transform="translate(407.03125 0)"/>
       <use xlink:href="#DejaVuSans-69" transform="translate(462.011719 0)"/>
       <use xlink:href="#DejaVuSans-65" transform="translate(489.794922 0)"/>
       <use xlink:href="#DejaVuSans-21" transform="translate(551.318359 0)"/>
       <use xlink:href="#DejaVuSans-20" transform="translate(591.40625 0)"/>
       <use xlink:href="#DejaVuSans-45" transform="translate(623.193359 0)"/>
       <use xlink:href="#DejaVuSans-76" transform="translate(686.376953 0)"/>
       <use xlink:href="#DejaVuSans-65" transform="translate(745.556641 0)"/>
       <use xlink:href="#DejaVuSans-72" transform="translate(807.080078 0)"/>
       <use xlink:href="#DejaVuSans-65" transform="translate(845.943359 0)"/>
       <use xlink:href="#DejaVuSans-73" transform="translate(907.466797 0)"/>
       <use xlink:href="#DejaVuSans-74" transform="translate(959.566406 0)"/>
       <use xlink:href="#DejaVuSans-20" transform="translate(998.775391 0)"/>
       <use xlink:href="#DejaVuSans-38" transform="translate(1030.5625 0)"/>
       <use xlink:href="#DejaVuSans-38" transform="translate(1094.185547 0)"/>
       <use xlink:href="#DejaVuSans-34" transform="translate(1157.808594 0)"/>
       <use xlink:href="#DejaVuSans-38" transform="translate(1221.431641 0)"/>
       <use xlink:href="#DejaVuSans-6d" transform="translate(1285.054688 0)"/>
      </g>
      <!-- [JSON] -->
      <g style="fill: #d62728" transform="translate(180.812747 270.511875) scale(0.08 -0.08)">
       <use xlink:href="#DejaVuSans-5b"/>
       <use xlink:href="#DejaVuSans-4a" transform="translate(39.013672 0)"/>
       <use xlink:href="#DejaVuSans-53" transform="translate(68.505859 0)"/>
       <use xlink:href="#DejaVuSans-4f" transform="translate(131.982422 0)"/>
       <use xlink:href="#DejaVuSans-4e" transform="translate(210.693359 0)"/>
       <use xlink:href="#DejaVuSans-5d" transform="translate(285.498047 0)"/>
      </g>
     </g>
    </g>
    <g id="xtick_3">
     <g id="line2d_3">
      <g>
       <use xlink:href="#m9b640b99b5" x="275.323629" y="248.154875" style="stroke: #000000; stroke-width: 0.8"/>
      </g>
     </g>
     <g id="text_3">
      <!-- Moja wiedza do dyspozycji -->
      <g style="fill: #d62728" transform="translate(222.261754 261.233625) scale(0.08 -0.08)">
       <defs>
        <path id="DejaVuSans-4d" d="M 628 4666 
L 1569 4666 
L 2759 1491 
L 3956 4666 
L 4897 4666 
L 4897 0 
L 4281 0 
L 4281 4097 
L 3078 897 
L 2444 897 
L 1241 4097 
L 1241 0 
L 628 0 
L 628 4666 
z
" transform="scale(0.015625)"/>
        <path id="DejaVuSans-6a" d="M 603 3500 
L 1178 3500 
L 1178 -63 
Q 1178 -731 923 -1031 
Q 669 -1331 103 -1331 
L -116 -1331 
L -116 -844 
L 38 -844 
Q 366 -844 484 -692 
Q 603 -541 603 -63 
L 603 3500 
z
M 603 4863 
L 1178 4863 
L 1178 4134 
L 603 4134 
L 603 4863 
z
" transform="scale(0.015625)"/>
        <path id="DejaVuSans-70" d="M 1159 525 
L 1159 -1331 
L 581 -1331 
L 581 3500 
L 1159 3500 
L 1159 2969 
Q 1341 3281 1617 3432 
Q 1894 3584 2278 3584 
Q 2916 3584 3314 3078 
Q 3713 2572 3713 1747 
Q 3713 922 3314 415 
Q 2916 -91 2278 -91 
Q 1894 -91 1617 61 
Q 1341 213 1159 525 
z
M 3116 1747 
Q 3116 2381 2855 2742 
Q 2594 3103 2138 3103 
Q 1681 3103 1420 2742 
Q 1159 2381 1159 1747 
Q 1159 1113 1420 752 
Q 1681 391 2138 391 
Q 2594 391 2855 752 
Q 3116 1113 3116 1747 
z
" transform="scale(0.015625)"/>
       </defs>
       <use xlink:href="#DejaVuSans-4d"/>
       <use xlink:href="#DejaVuSans-6f" transform="translate(86.279297 0)"/>
       <use xlink:href="#DejaVuSans-6a" transform="translate(147.460938 0)"/>
       <use xlink:href="#DejaVuSans-61" transform="translate(175.244141 0)"/>
       <use xlink:href="#DejaVuSans-20" transform="translate(236.523438 0)"/>
       <use xlink:href="#DejaVuSans-77" transform="translate(268.310547 0)"/>
       <use xlink:href="#DejaVuSans-69" transform="translate(350.097656 0)"/>
       <use xlink:href="#DejaVuSans-65" transform="translate(377.880859 0)"/>
       <use xlink:href="#DejaVuSans-64" transform="translate(439.404297 0)"/>
       <use xlink:href="#DejaVuSans-7a" transform="translate(502.880859 0)"/>
       <use xlink:href="#DejaVuSans-61" transform="translate(555.371094 0)"/>
       <use xlink:href="#DejaVuSans-20" transform="translate(616.650391 0)"/>
       <use xlink:href="#DejaVuSans-64" transform="translate(648.4375 0)"/>
       <use xlink:href="#DejaVuSans-6f" transform="translate(711.914062 0)"/>
       <use xlink:href="#DejaVuSans-20" transform="translate(773.095703 0)"/>
       <use xlink:href="#DejaVuSans-64" transform="translate(804.882812 0)"/>
       <use xlink:href="#DejaVuSans-79" transform="translate(868.359375 0)"/>
       <use xlink:href="#DejaVuSans-73" transform="translate(927.539062 0)"/>
       <use xlink:href="#DejaVuSans-70" transform="translate(979.638672 0)"/>
       <use xlink:href="#DejaVuSans-6f" transform="translate(1043.115234 0)"/>
       <use xlink:href="#DejaVuSans-7a" transform="translate(1104.296875 0)"/>
       <use xlink:href="#DejaVuSans-79" transform="translate(1156.787109 0)"/>
       <use xlink:href="#DejaVuSans-63" transform="translate(1215.966797 0)"/>
       <use xlink:href="#DejaVuSans-6a" transform="translate(1270.947266 0)"/>
       <use xlink:href="#DejaVuSans-69" transform="translate(1298.730469 0)"/>
      </g>
      <!-- [JSON] -->
      <g style="fill: #d62728" transform="translate(262.341754 270.191875) scale(0.08 -0.08)">
       <use xlink:href="#DejaVuSans-5b"/>
       <use xlink:href="#DejaVuSans-4a" transform="translate(39.013672 0)"/>
       <use xlink:href="#DejaVuSans-53" transform="translate(68.505859 0)"/>
       <use xlink:href="#DejaVuSans-4f" transform="translate(131.982422 0)"/>
       <use xlink:href="#DejaVuSans-4e" transform="translate(210.693359 0)"/>
       <use xlink:href="#DejaVuSans-5d" transform="translate(285.498047 0)"/>
      </g>
     </g>
    </g>
    <g id="xtick_4">
     <g id="line2d_4">
      <g>
       <use xlink:href="#m9b640b99b5" x="356.852636" y="248.154875" style="stroke: #000000; stroke-width: 0.8"/>
      </g>
     </g>
     <g id="text_4">
      <!-- JSON calculate_weight -->
      <g style="fill: #1f77b4" transform="translate(312.146386 261.233625) scale(0.08 -0.08)">
       <defs>
        <path id="DejaVuSans-6c" d="M 603 4863 
L 1178 4863 
L 1178 0 
L 603 0 
L 603 4863 
z
" transform="scale(0.015625)"/>
        <path id="DejaVuSans-75" d="M 544 1381 
L 544 3500 
L 1119 3500 
L 1119 1403 
Q 1119 906 1312 657 
Q 1506 409 1894 409 
Q 2359 409 2629 706 
Q 2900 1003 2900 1516 
L 2900 3500 
L 3475 3500 
L 3475 0 
L 2900 0 
L 2900 538 
Q 2691 219 2414 64 
Q 2138 -91 1772 -91 
Q 1169 -91 856 284 
Q 544 659 544 1381 
z
M 1991 3584 
L 1991 3584 
z
" transform="scale(0.015625)"/>
        <path id="DejaVuSans-5f" d="M 3263 -1063 
L 3263 -1509 
L -63 -1509 
L -63 -1063 
L 3263 -1063 
z
" transform="scale(0.015625)"/>
        <path id="DejaVuSans-67" d="M 2906 1791 
Q 2906 2416 2648 2759 
Q 2391 3103 1925 3103 
Q 1463 3103 1205 2759 
Q 947 2416 947 1791 
Q 947 1169 1205 825 
Q 1463 481 1925 481 
Q 2391 481 2648 825 
Q 2906 1169 2906 1791 
z
M 3481 434 
Q 3481 -459 3084 -895 
Q 2688 -1331 1869 -1331 
Q 1566 -1331 1297 -1286 
Q 1028 -1241 775 -1147 
L 775 -588 
Q 1028 -725 1275 -790 
Q 1522 -856 1778 -856 
Q 2344 -856 2625 -561 
Q 2906 -266 2906 331 
L 2906 616 
Q 2728 306 2450 153 
Q 2172 0 1784 0 
Q 1141 0 747 490 
Q 353 981 353 1791 
Q 353 2603 747 3093 
Q 1141 3584 1784 3584 
Q 2172 3584 2450 3431 
Q 2728 3278 2906 2969 
L 2906 3500 
L 3481 3500 
L 3481 434 
z
" transform="scale(0.015625)"/>
        <path id="DejaVuSans-68" d="M 3513 2113 
L 3513 0 
L 2938 0 
L 2938 2094 
Q 2938 2591 2744 2837 
Q 2550 3084 2163 3084 
Q 1697 3084 1428 2787 
Q 1159 2491 1159 1978 
L 1159 0 
L 581 0 
L 581 4863 
L 1159 4863 
L 1159 2956 
Q 1366 3272 1645 3428 
Q 1925 3584 2291 3584 
Q 2894 3584 3203 3211 
Q 3513 2838 3513 2113 
z
" transform="scale(0.015625)"/>
       </defs>
       <use xlink:href="#DejaVuSans-4a"/>
       <use xlink:href="#DejaVuSans-53" transform="translate(29.492188 0)"/>
       <use xlink:href="#DejaVuSans-4f" transform="translate(92.96875 0)"/>
       <use xlink:href="#DejaVuSans-4e" transform="translate(171.679688 0)"/>
       <use xlink:href="#DejaVuSans-20" transform="translate(246.484375 0)"/>
       <use xlink:href="#DejaVuSans-63" transform="translate(278.271484 0)"/>
       <use xlink:href="#DejaVuSans-61" transform="translate(333.251953 0)"/>
       <use xlink:href="#DejaVuSans-6c" transform="translate(394.53125 0)"/>
       <use xlink:href="#DejaVuSans-63" transform="translate(422.314453 0)"/>
       <use xlink:href="#DejaVuSans-75" transform="translate(477.294922 0)"/>
       <use xlink:href="#DejaVuSans-6c" transform="translate(540.673828 0)"/>
       <use xlink:href="#DejaVuSans-61" transform="translate(568.457031 0)"/>
       <use xlink:href="#DejaVuSans-74" transform="translate(629.736328 0)"/>
       <use xlink:href="#DejaVuSans-65" transform="translate(668.945312 0)"/>
       <use xlink:href="#DejaVuSans-5f" transform="translate(730.46875 0)"/>
       <use xlink:href="#DejaVuSans-77" transform="translate(780.46875 0)"/>
       <use xlink:href="#DejaVuSans-65" transform="translate(862.255859 0)"/>
       <use xlink:href="#DejaVuSans-69" transform="translate(923.779297 0)"/>
       <use xlink:href="#DejaVuSans-67" transform="translate(951.5625 0)"/>
       <use xlink:href="#DejaVuSans-68" transform="translate(1015.039062 0)"/>
       <use xlink:href="#DejaVuSans-74" transform="translate(1078.417969 0)"/>
      </g>
      <!-- [EXACT] -->
      <g style="fill: #1f77b4" transform="translate(340.561386 270.414375) scale(0.08 -0.08)">
       <defs>
        <path id="DejaVuSans-58" d="M 403 4666 
L 1081 4666 
L 2241 2931 
L 3406 4666 
L 4084 4666 
L 2584 2425 
L 4184 0 
L 3506 0 
L 2194 1984 
L 872 0 
L 191 0 
L 1856 2491 
L 403 4666 
z
" transform="scale(0.015625)"/>
        <path id="DejaVuSans-41" d="M 2188 4044 
L 1331 1722 
L 3047 1722 
L 2188 4044 
z
M 1831 4666 
L 2547 4666 
L 4325 0 
L 3669 0 
L 3244 1197 
L 1141 1197 
L 716 0 
L 50 0 
L 1831 4666 
z
" transform="scale(0.015625)"/>
        <path id="DejaVuSans-54" d="M -19 4666 
L 3928 4666 
L 3928 4134 
L 2272 4134 
L 2272 0 
L 1638 0 
L 1638 4134 
L -19 4134 
L -19 4666 
z
" transform="scale(0.015625)"/>
       </defs>
       <use xlink:href="#DejaVuSans-5b"/>
       <use xlink:href="#DejaVuSans-45" transform="translate(39.013672 0)"/>
       <use xlink:href="#DejaVuSans-58" transform="translate(102.197266 0)"/>
       <use xlink:href="#DejaVuSans-41" transform="translate(170.703125 0)"/>
       <use xlink:href="#DejaVuSans-43" transform="translate(237.361328 0)"/>
       <use xlink:href="#DejaVuSans-54" transform="translate(307.185547 0)"/>
       <use xlink:href="#DejaVuSans-5d" transform="translate(368.269531 0)"/>
      </g>
     </g>
    </g>
    <g id="xtick_5">
     <g id="line2d_5">
      <g>
       <use xlink:href="#m9b640b99b5" x="438.381643" y="248.154875" style="stroke: #000000; stroke-width: 0.8"/>
      </g>
     </g>
     <g id="text_5">
      <!-- Tak, 8 maja 1945 -->
      <g style="fill: #1f77b4" transform="translate(404.111018 261.233625) scale(0.08 -0.08)">
       <defs>
        <path id="DejaVuSans-6b" d="M 581 4863 
L 1159 4863 
L 1159 1991 
L 2875 3500 
L 3609 3500 
L 1753 1863 
L 3688 0 
L 2938 0 
L 1159 1709 
L 1159 0 
L 581 0 
L 581 4863 
z
" transform="scale(0.015625)"/>
        <path id="DejaVuSans-2c" d="M 750 794 
L 1409 794 
L 1409 256 
L 897 -744 
L 494 -744 
L 750 256 
L 750 794 
z
" transform="scale(0.015625)"/>
        <path id="DejaVuSans-39" d="M 703 97 
L 703 672 
Q 941 559 1184 500 
Q 1428 441 1663 441 
Q 2288 441 2617 861 
Q 2947 1281 2994 2138 
Q 2813 1869 2534 1725 
Q 2256 1581 1919 1581 
Q 1219 1581 811 2004 
Q 403 2428 403 3163 
Q 403 3881 828 4315 
Q 1253 4750 1959 4750 
Q 2769 4750 3195 4129 
Q 3622 3509 3622 2328 
Q 3622 1225 3098 567 
Q 2575 -91 1691 -91 
Q 1453 -91 1209 -44 
Q 966 3 703 97 
z
M 1959 2075 
Q 2384 2075 2632 2365 
Q 2881 2656 2881 3163 
Q 2881 3666 2632 3958 
Q 2384 4250 1959 4250 
Q 1534 4250 1286 3958 
Q 1038 3666 1038 3163 
Q 1038 2656 1286 2365 
Q 1534 2075 1959 2075 
z
" transform="scale(0.015625)"/>
        <path id="DejaVuSans-35" d="M 691 4666 
L 3169 4666 
L 3169 4134 
L 1269 4134 
L 1269 2991 
Q 1406 3038 1543 3061 
Q 1681 3084 1819 3084 
Q 2600 3084 3056 2656 
Q 3513 2228 3513 1497 
Q 3513 744 3044 326 
Q 2575 -91 1722 -91 
Q 1428 -91 1123 -41 
Q 819 9 494 109 
L 494 744 
Q 775 591 1075 516 
Q 1375 441 1709 441 
Q 2250 441 2565 725 
Q 2881 1009 2881 1497 
Q 2881 1984 2565 2268 
Q 2250 2553 1709 2553 
Q 1456 2553 1204 2497 
Q 953 2441 691 2322 
L 691 4666 
z
" transform="scale(0.015625)"/>
       </defs>
       <use xlink:href="#DejaVuSans-54"/>
       <use xlink:href="#DejaVuSans-61" transform="translate(44.583984 0)"/>
       <use xlink:href="#DejaVuSans-6b" transform="translate(105.863281 0)"/>
       <use xlink:href="#DejaVuSans-2c" transform="translate(163.773438 0)"/>
       <use xlink:href="#DejaVuSans-20" transform="translate(195.560547 0)"/>
       <use xlink:href="#DejaVuSans-38" transform="translate(227.347656 0)"/>
       <use xlink:href="#DejaVuSans-20" transform="translate(290.970703 0)"/>
       <use xlink:href="#DejaVuSans-6d" transform="translate(322.757812 0)"/>
       <use xlink:href="#DejaVuSans-61" transform="translate(420.169922 0)"/>
       <use xlink:href="#DejaVuSans-6a" transform="translate(481.449219 0)"/>
       <use xlink:href="#DejaVuSans-61" transform="translate(509.232422 0)"/>
       <use xlink:href="#DejaVuSans-20" transform="translate(570.511719 0)"/>
       <use xlink:href="#DejaVuSans-31" transform="translate(602.298828 0)"/>
       <use xlink:href="#DejaVuSans-39" transform="translate(665.921875 0)"/>
       <use xlink:href="#DejaVuSans-34" transform="translate(729.544922 0)"/>
       <use xlink:href="#DejaVuSans-35" transform="translate(793.167969 0)"/>
      </g>
      <!-- [EXACT] -->
      <g style="fill: #1f77b4" transform="translate(422.090393 270.191875) scale(0.08 -0.08)">
       <use xlink:href="#DejaVuSans-5b"/>
       <use xlink:href="#DejaVuSans-45" transform="translate(39.013672 0)"/>
       <use xlink:href="#DejaVuSans-58" transform="translate(102.197266 0)"/>
       <use xlink:href="#DejaVuSans-41" transform="translate(170.703125 0)"/>
       <use xlink:href="#DejaVuSans-43" transform="translate(237.361328 0)"/>
       <use xlink:href="#DejaVuSans-54" transform="translate(307.185547 0)"/>
       <use xlink:href="#DejaVuSans-5d" transform="translate(368.269531 0)"/>
      </g>
     </g>
    </g>
    <g id="xtick_6">
     <g id="line2d_6">
      <g>
       <use xlink:href="#m9b640b99b5" x="519.910649" y="248.154875" style="stroke: #000000; stroke-width: 0.8"/>
      </g>
     </g>
     <g id="text_6">
      <!-- I'm here to help -->
      <g style="fill: #1f77b4" transform="translate(488.246899 261.233625) scale(0.08 -0.08)">
       <defs>
        <path id="DejaVuSans-49" d="M 628 4666 
L 1259 4666 
L 1259 0 
L 628 0 
L 628 4666 
z
" transform="scale(0.015625)"/>
        <path id="DejaVuSans-27" d="M 1147 4666 
L 1147 2931 
L 616 2931 
L 616 4666 
L 1147 4666 
z
" transform="scale(0.015625)"/>
       </defs>
       <use xlink:href="#DejaVuSans-49"/>
       <use xlink:href="#DejaVuSans-27" transform="translate(29.492188 0)"/>
       <use xlink:href="#DejaVuSans-6d" transform="translate(56.982422 0)"/>
       <use xlink:href="#DejaVuSans-20" transform="translate(154.394531 0)"/>
       <use xlink:href="#DejaVuSans-68" transform="translate(186.181641 0)"/>
       <use xlink:href="#DejaVuSans-65" transform="translate(249.560547 0)"/>
       <use xlink:href="#DejaVuSans-72" transform="translate(311.083984 0)"/>
       <use xlink:href="#DejaVuSans-65" transform="translate(349.947266 0)"/>
       <use xlink:href="#DejaVuSans-20" transform="translate(411.470703 0)"/>
       <use xlink:href="#DejaVuSans-74" transform="translate(443.257812 0)"/>
       <use xlink:href="#DejaVuSans-6f" transform="translate(482.466797 0)"/>
       <use xlink:href="#DejaVuSans-20" transform="translate(543.648438 0)"/>
       <use xlink:href="#DejaVuSans-68" transform="translate(575.435547 0)"/>
       <use xlink:href="#DejaVuSans-65" transform="translate(638.814453 0)"/>
       <use xlink:href="#DejaVuSans-6c" transform="translate(700.337891 0)"/>
       <use xlink:href="#DejaVuSans-70" transform="translate(728.121094 0)"/>
      </g>
      <!-- [EXACT] -->
      <g style="fill: #1f77b4" transform="translate(503.619399 270.191875) scale(0.08 -0.08)">
       <use xlink:href="#DejaVuSans-5b"/>
       <use xlink:href="#DejaVuSans-45" transform="translate(39.013672 0)"/>
       <use xlink:href="#DejaVuSans-58" transform="translate(102.197266 0)"/>
       <use xlink:href="#DejaVuSans-41" transform="translate(170.703125 0)"/>
       <use xlink:href="#DejaVuSans-43" transform="translate(237.361328 0)"/>
       <use xlink:href="#DejaVuSans-54" transform="translate(307.185547 0)"/>
       <use xlink:href="#DejaVuSans-5d" transform="translate(368.269531 0)"/>
      </g>
     </g>
    </g>
    <g id="xtick_7">
     <g id="line2d_7">
      <g>
       <use xlink:href="#m9b640b99b5" x="601.439656" y="248.154875" style="stroke: #000000; stroke-width: 0.8"/>
      </g>
     </g>
     <g id="text_7">
      <!-- Stolica Francji to Paryż -->
      <g style="fill: #2ca02c" transform="translate(556.324656 261.233625) scale(0.08 -0.08)">
       <defs>
        <path id="DejaVuSans-46" d="M 628 4666 
L 3309 4666 
L 3309 4134 
L 1259 4134 
L 1259 2759 
L 3109 2759 
L 3109 2228 
L 1259 2228 
L 1259 0 
L 628 0 
L 628 4666 
z
" transform="scale(0.015625)"/>
        <path id="DejaVuSans-6e" d="M 3513 2113 
L 3513 0 
L 2938 0 
L 2938 2094 
Q 2938 2591 2744 2837 
Q 2550 3084 2163 3084 
Q 1697 3084 1428 2787 
Q 1159 2491 1159 1978 
L 1159 0 
L 581 0 
L 581 3500 
L 1159 3500 
L 1159 2956 
Q 1366 3272 1645 3428 
Q 1925 3584 2291 3584 
Q 2894 3584 3203 3211 
Q 3513 2838 3513 2113 
z
" transform="scale(0.015625)"/>
        <path id="DejaVuSans-50" d="M 1259 4147 
L 1259 2394 
L 2053 2394 
Q 2494 2394 2734 2622 
Q 2975 2850 2975 3272 
Q 2975 3691 2734 3919 
Q 2494 4147 2053 4147 
L 1259 4147 
z
M 628 4666 
L 2053 4666 
Q 2838 4666 3239 4311 
Q 3641 3956 3641 3272 
Q 3641 2581 3239 2228 
Q 2838 1875 2053 1875 
L 1259 1875 
L 1259 0 
L 628 0 
L 628 4666 
z
" transform="scale(0.015625)"/>
        <path id="DejaVuSans-17c" d="M 1378 4863 
L 1953 4863 
L 1953 4134 
L 1378 4134 
L 1378 4863 
z
M 1672 3584 
L 1672 3584 
z
M 353 3500 
L 3084 3500 
L 3084 2975 
L 922 459 
L 3084 459 
L 3084 0 
L 275 0 
L 275 525 
L 2438 3041 
L 353 3041 
L 353 3500 
z
" transform="scale(0.015625)"/>
       </defs>
       <use xlink:href="#DejaVuSans-53"/>
       <use xlink:href="#DejaVuSans-74" transform="translate(63.476562 0)"/>
       <use xlink:href="#DejaVuSans-6f" transform="translate(102.685547 0)"/>
       <use xlink:href="#DejaVuSans-6c" transform="translate(163.867188 0)"/>
       <use xlink:href="#DejaVuSans-69" transform="translate(191.650391 0)"/>
       <use xlink:href="#DejaVuSans-63" transform="translate(219.433594 0)"/>
       <use xlink:href="#DejaVuSans-61" transform="translate(274.414062 0)"/>
       <use xlink:href="#DejaVuSans-20" transform="translate(335.693359 0)"/>
       <use xlink:href="#DejaVuSans-46" transform="translate(367.480469 0)"/>
       <use xlink:href="#DejaVuSans-72" transform="translate(417.75 0)"/>
       <use xlink:href="#DejaVuSans-61" transform="translate(458.863281 0)"/>
       <use xlink:href="#DejaVuSans-6e" transform="translate(520.142578 0)"/>
       <use xlink:href="#DejaVuSans-63" transform="translate(583.521484 0)"/>
       <use xlink:href="#DejaVuSans-6a" transform="translate(638.501953 0)"/>
       <use xlink:href="#DejaVuSans-69" transform="translate(666.285156 0)"/>
       <use xlink:href="#DejaVuSans-20" transform="translate(694.068359 0)"/>
       <use xlink:href="#DejaVuSans-74" transform="translate(725.855469 0)"/>
       <use xlink:href="#DejaVuSans-6f" transform="translate(765.064453 0)"/>
       <use xlink:href="#DejaVuSans-20" transform="translate(826.246094 0)"/>
       <use xlink:href="#DejaVuSans-50" transform="translate(858.033203 0)"/>
       <use xlink:href="#DejaVuSans-61" transform="translate(913.835938 0)"/>
       <use xlink:href="#DejaVuSans-72" transform="translate(975.115234 0)"/>
       <use xlink:href="#DejaVuSans-79" transform="translate(1016.228516 0)"/>
       <use xlink:href="#DejaVuSans-17c" transform="translate(1075.408203 0)"/>
      </g>
      <!-- [BASELINE] -->
      <g style="fill: #2ca02c" transform="translate(578.842156 270.191875) scale(0.08 -0.08)">
       <defs>
        <path id="DejaVuSans-42" d="M 1259 2228 
L 1259 519 
L 2272 519 
Q 2781 519 3026 730 
Q 3272 941 3272 1375 
Q 3272 1813 3026 2020 
Q 2781 2228 2272 2228 
L 1259 2228 
z
M 1259 4147 
L 1259 2741 
L 2194 2741 
Q 2656 2741 2882 2914 
Q 3109 3088 3109 3444 
Q 3109 3797 2882 3972 
Q 2656 4147 2194 4147 
L 1259 4147 
z
M 628 4666 
L 2241 4666 
Q 2963 4666 3353 4366 
Q 3744 4066 3744 3513 
Q 3744 3084 3544 2831 
Q 3344 2578 2956 2516 
Q 3422 2416 3680 2098 
Q 3938 1781 3938 1306 
Q 3938 681 3513 340 
Q 3088 0 2303 0 
L 628 0 
L 628 4666 
z
" transform="scale(0.015625)"/>
        <path id="DejaVuSans-4c" d="M 628 4666 
L 1259 4666 
L 1259 531 
L 3531 531 
L 3531 0 
L 628 0 
L 628 4666 
z
" transform="scale(0.015625)"/>
       </defs>
       <use xlink:href="#DejaVuSans-5b"/>
       <use xlink:href="#DejaVuSans-42" transform="translate(39.013672 0)"/>
       <use xlink:href="#DejaVuSans-41" transform="translate(107.617188 0)"/>
       <use xlink:href="#DejaVuSans-53" transform="translate(176.025391 0)"/>
       <use xlink:href="#DejaVuSans-45" transform="translate(239.501953 0)"/>
       <use xlink:href="#DejaVuSans-4c" transform="translate(302.685547 0)"/>
       <use xlink:href="#DejaVuSans-49" transform="translate(358.398438 0)"/>
       <use xlink:href="#DejaVuSans-4e" transform="translate(387.890625 0)"/>
       <use xlink:href="#DejaVuSans-45" transform="translate(462.695312 0)"/>
       <use xlink:href="#DejaVuSans-5d" transform="translate(525.878906 0)"/>
      </g>
     </g>
    </g>
    <g id="xtick_8">
     <g id="line2d_8">
      <g>
       <use xlink:href="#m9b640b99b5" x="682.968663" y="248.154875" style="stroke: #000000; stroke-width: 0.8"/>
      </g>
     </g>
     <g id="text_8">
      <!-- Tokio jest stolicą Japonii -->
      <g style="fill: #2ca02c" transform="translate(635.496788 261.233625) scale(0.08 -0.08)">
       <defs>
        <path id="DejaVuSans-105" d="M 2194 1759 
Q 1497 1759 1228 1600 
Q 959 1441 959 1056 
Q 959 750 1161 570 
Q 1363 391 1709 391 
Q 2188 391 2477 730 
Q 2766 1069 2766 1631 
L 2766 1759 
L 2194 1759 
z
M 3341 1997 
L 3341 0 
L 2766 0 
L 2766 531 
Q 2569 213 2275 61 
Q 1981 -91 1556 -91 
Q 1019 -91 701 211 
Q 384 513 384 1019 
Q 384 1609 779 1909 
Q 1175 2209 1959 2209 
L 2766 2209 
L 2766 2266 
Q 2766 2663 2505 2880 
Q 2244 3097 1772 3097 
Q 1472 3097 1187 3025 
Q 903 2953 641 2809 
L 641 3341 
Q 956 3463 1253 3523 
Q 1550 3584 1831 3584 
Q 2591 3584 2966 3190 
Q 3341 2797 3341 1997 
z
M 2775 0 
L 3147 0 
Q 3006 -191 2939 -328 
Q 2872 -466 2872 -563 
Q 2872 -706 2958 -778 
Q 3044 -850 3213 -850 
Q 3313 -850 3409 -826 
Q 3506 -803 3603 -756 
L 3603 -1172 
Q 3484 -1203 3378 -1218 
Q 3272 -1234 3178 -1234 
Q 2797 -1234 2617 -1098 
Q 2438 -963 2438 -672 
Q 2438 -522 2520 -358 
Q 2603 -194 2775 0 
z
" transform="scale(0.015625)"/>
       </defs>
       <use xlink:href="#DejaVuSans-54"/>
       <use xlink:href="#DejaVuSans-6f" transform="translate(44.083984 0)"/>
       <use xlink:href="#DejaVuSans-6b" transform="translate(105.265625 0)"/>
       <use xlink:href="#DejaVuSans-69" transform="translate(163.175781 0)"/>
       <use xlink:href="#DejaVuSans-6f" transform="translate(190.958984 0)"/>
       <use xlink:href="#DejaVuSans-20" transform="translate(252.140625 0)"/>
       <use xlink:href="#DejaVuSans-6a" transform="translate(283.927734 0)"/>
       <use xlink:href="#DejaVuSans-65" transform="translate(311.710938 0)"/>
       <use xlink:href="#DejaVuSans-73" transform="translate(373.234375 0)"/>
       <use xlink:href="#DejaVuSans-74" transform="translate(425.333984 0)"/>
       <use xlink:href="#DejaVuSans-20" transform="translate(464.542969 0)"/>
       <use xlink:href="#DejaVuSans-73" transform="translate(496.330078 0)"/>
       <use xlink:href="#DejaVuSans-74" transform="translate(548.429688 0)"/>
       <use xlink:href="#DejaVuSans-6f" transform="translate(587.638672 0)"/>
       <use xlink:href="#DejaVuSans-6c" transform="translate(648.820312 0)"/>
       <use xlink:href="#DejaVuSans-69" transform="translate(676.603516 0)"/>
       <use xlink:href="#DejaVuSans-63" transform="translate(704.386719 0)"/>
       <use xlink:href="#DejaVuSans-105" transform="translate(759.367188 0)"/>
       <use xlink:href="#DejaVuSans-20" transform="translate(820.646484 0)"/>
       <use xlink:href="#DejaVuSans-4a" transform="translate(852.433594 0)"/>
       <use xlink:href="#DejaVuSans-61" transform="translate(881.925781 0)"/>
       <use xlink:href="#DejaVuSans-70" transform="translate(943.205078 0)"/>
       <use xlink:href="#DejaVuSans-6f" transform="translate(1006.681641 0)"/>
       <use xlink:href="#DejaVuSans-6e" transform="translate(1067.863281 0)"/>
       <use xlink:href="#DejaVuSans-69" transform="translate(1131.242188 0)"/>
       <use xlink:href="#DejaVuSans-69" transform="translate(1159.025391 0)"/>
      </g>
      <!-- [BASELINE] -->
      <g style="fill: #2ca02c" transform="translate(660.371163 270.191875) scale(0.08 -0.08)">
       <use xlink:href="#DejaVuSans-5b"/>
       <use xlink:href="#DejaVuSans-42" transform="translate(39.013672 0)"/>
       <use xlink:href="#DejaVuSans-41" transform="translate(107.617188 0)"/>
       <use xlink:href="#DejaVuSans-53" transform="translate(176.025391 0)"/>
       <use xlink:href="#DejaVuSans-45" transform="translate(239.501953 0)"/>
       <use xlink:href="#DejaVuSans-4c" transform="translate(302.685547 0)"/>
       <use xlink:href="#DejaVuSans-49" transform="translate(358.398438 0)"/>
       <use xlink:href="#DejaVuSans-4e" transform="translate(387.890625 0)"/>
       <use xlink:href="#DejaVuSans-45" transform="translate(462.695312 0)"/>
       <use xlink:href="#DejaVuSans-5d" transform="translate(525.878906 0)"/>
      </g>
     </g>
    </g>
    <g id="xtick_9">
     <g id="line2d_9">
      <g>
       <use xlink:href="#m9b640b99b5" x="764.497669" y="248.154875" style="stroke: #000000; stroke-width: 0.8"/>
      </g>
     </g>
     <g id="text_9">
      <!-- Serce ma 4 komory (Czy to prawda?) -->
      <g style="fill: #2ca02c" transform="translate(690.370794 261.233625) scale(0.08 -0.08)">
       <defs>
        <path id="DejaVuSans-28" d="M 1984 4856 
Q 1566 4138 1362 3434 
Q 1159 2731 1159 2009 
Q 1159 1288 1364 580 
Q 1569 -128 1984 -844 
L 1484 -844 
Q 1016 -109 783 600 
Q 550 1309 550 2009 
Q 550 2706 781 3412 
Q 1013 4119 1484 4856 
L 1984 4856 
z
" transform="scale(0.015625)"/>
        <path id="DejaVuSans-3f" d="M 1222 794 
L 1856 794 
L 1856 0 
L 1222 0 
L 1222 794 
z
M 1838 1253 
L 1241 1253 
L 1241 1734 
Q 1241 2050 1328 2253 
Q 1416 2456 1697 2725 
L 1978 3003 
Q 2156 3169 2236 3316 
Q 2316 3463 2316 3616 
Q 2316 3894 2111 4066 
Q 1906 4238 1569 4238 
Q 1322 4238 1042 4128 
Q 763 4019 459 3809 
L 459 4397 
Q 753 4575 1054 4662 
Q 1356 4750 1678 4750 
Q 2253 4750 2601 4447 
Q 2950 4144 2950 3647 
Q 2950 3409 2837 3195 
Q 2725 2981 2444 2713 
L 2169 2444 
Q 2022 2297 1961 2214 
Q 1900 2131 1875 2053 
Q 1856 1988 1847 1894 
Q 1838 1800 1838 1638 
L 1838 1253 
z
" transform="scale(0.015625)"/>
        <path id="DejaVuSans-29" d="M 513 4856 
L 1013 4856 
Q 1481 4119 1714 3412 
Q 1947 2706 1947 2009 
Q 1947 1309 1714 600 
Q 1481 -109 1013 -844 
L 513 -844 
Q 928 -128 1133 580 
Q 1338 1288 1338 2009 
Q 1338 2731 1133 3434 
Q 928 4138 513 4856 
z
" transform="scale(0.015625)"/>
       </defs>
       <use xlink:href="#DejaVuSans-53"/>
       <use xlink:href="#DejaVuSans-65" transform="translate(63.476562 0)"/>
       <use xlink:href="#DejaVuSans-72" transform="translate(125 0)"/>
       <use xlink:href="#DejaVuSans-63" transform="translate(163.863281 0)"/>
       <use xlink:href="#DejaVuSans-65" transform="translate(218.84375 0)"/>
       <use xlink:href="#DejaVuSans-20" transform="translate(280.367188 0)"/>
       <use xlink:href="#DejaVuSans-6d" transform="translate(312.154297 0)"/>
       <use xlink:href="#DejaVuSans-61" transform="translate(409.566406 0)"/>
       <use xlink:href="#DejaVuSans-20" transform="translate(470.845703 0)"/>
       <use xlink:href="#DejaVuSans-34" transform="translate(502.632812 0)"/>
       <use xlink:href="#DejaVuSans-20" transform="translate(566.255859 0)"/>
       <use xlink:href="#DejaVuSans-6b" transform="translate(598.042969 0)"/>
       <use xlink:href="#DejaVuSans-6f" transform="translate(652.328125 0)"/>
       <use xlink:href="#DejaVuSans-6d" transform="translate(713.509766 0)"/>
       <use xlink:href="#DejaVuSans-6f" transform="translate(810.921875 0)"/>
       <use xlink:href="#DejaVuSans-72" transform="translate(872.103516 0)"/>
       <use xlink:href="#DejaVuSans-79" transform="translate(913.216797 0)"/>
       <use xlink:href="#DejaVuSans-20" transform="translate(972.396484 0)"/>
       <use xlink:href="#DejaVuSans-28" transform="translate(1004.183594 0)"/>
       <use xlink:href="#DejaVuSans-43" transform="translate(1043.197266 0)"/>
       <use xlink:href="#DejaVuSans-7a" transform="translate(1113.021484 0)"/>
       <use xlink:href="#DejaVuSans-79" transform="translate(1165.511719 0)"/>
       <use xlink:href="#DejaVuSans-20" transform="translate(1224.691406 0)"/>
       <use xlink:href="#DejaVuSans-74" transform="translate(1256.478516 0)"/>
       <use xlink:href="#DejaVuSans-6f" transform="translate(1295.6875 0)"/>
       <use xlink:href="#DejaVuSans-20" transform="translate(1356.869141 0)"/>
       <use xlink:href="#DejaVuSans-70" transform="translate(1388.65625 0)"/>
       <use xlink:href="#DejaVuSans-72" transform="translate(1452.132812 0)"/>
       <use xlink:href="#DejaVuSans-61" transform="translate(1493.246094 0)"/>
       <use xlink:href="#DejaVuSans-77" transform="translate(1554.525391 0)"/>
       <use xlink:href="#DejaVuSans-64" transform="translate(1636.3125 0)"/>
       <use xlink:href="#DejaVuSans-61" transform="translate(1699.789062 0)"/>
       <use xlink:href="#DejaVuSans-3f" transform="translate(1761.068359 0)"/>
       <use xlink:href="#DejaVuSans-29" transform="translate(1814.144531 0)"/>
      </g>
      <!-- [BASELINE] -->
      <g style="fill: #2ca02c" transform="translate(741.900169 270.191875) scale(0.08 -0.08)">
       <use xlink:href="#DejaVuSans-5b"/>
       <use xlink:href="#DejaVuSans-42" transform="translate(39.013672 0)"/>
       <use xlink:href="#DejaVuSans-41" transform="translate(107.617188 0)"/>
       <use xlink:href="#DejaVuSans-53" transform="translate(176.025391 0)"/>
       <use xlink:href="#DejaVuSans-45" transform="translate(239.501953 0)"/>
       <use xlink:href="#DejaVuSans-4c" transform="translate(302.685547 0)"/>
       <use xlink:href="#DejaVuSans-49" transform="translate(358.398438 0)"/>
       <use xlink:href="#DejaVuSans-4e" transform="translate(387.890625 0)"/>
       <use xlink:href="#DejaVuSans-45" transform="translate(462.695312 0)"/>
       <use xlink:href="#DejaVuSans-5d" transform="translate(525.878906 0)"/>
      </g>
     </g>
    </g>
   </g>
   <g id="matplotlib.axis_2">
    <g id="ytick_1">
     <g id="line2d_10">
      <defs>
       <path id="m88906b57a7" d="M 0 0 
L -3.5 0 
" style="stroke: #000000; stroke-width: 0.8"/>
      </defs>
      <g>
       <use xlink:href="#m88906b57a7" x="43.78125" y="248.154875" style="stroke: #000000; stroke-width: 0.8"/>
      </g>
     </g>
     <g id="text_10">
      <!-- 0.0 -->
      <g transform="translate(20.878125 251.954094) scale(0.1 -0.1)">
       <defs>
        <path id="DejaVuSans-2e" d="M 684 794 
L 1344 794 
L 1344 0 
L 684 0 
L 684 794 
z
" transform="scale(0.015625)"/>
       </defs>
       <use xlink:href="#DejaVuSans-30"/>
       <use xlink:href="#DejaVuSans-2e" transform="translate(63.623047 0)"/>
       <use xlink:href="#DejaVuSans-30" transform="translate(95.410156 0)"/>
      </g>
     </g>
    </g>
    <g id="ytick_2">
     <g id="line2d_11">
      <g>
       <use xlink:href="#m88906b57a7" x="43.78125" y="203.083525" style="stroke: #000000; stroke-width: 0.8"/>
      </g>
     </g>
     <g id="text_11">
      <!-- 0.2 -->
      <g transform="translate(20.878125 206.882744) scale(0.1 -0.1)">
       <defs>
        <path id="DejaVuSans-32" d="M 1228 531 
L 3431 531 
L 3431 0 
L 469 0 
L 469 531 
Q 828 903 1448 1529 
Q 2069 2156 2228 2338 
Q 2531 2678 2651 2914 
Q 2772 3150 2772 3378 
Q 2772 3750 2511 3984 
Q 2250 4219 1831 4219 
Q 1534 4219 1204 4116 
Q 875 4013 500 3803 
L 500 4441 
Q 881 4594 1212 4672 
Q 1544 4750 1819 4750 
Q 2544 4750 2975 4387 
Q 3406 4025 3406 3419 
Q 3406 3131 3298 2873 
Q 3191 2616 2906 2266 
Q 2828 2175 2409 1742 
Q 1991 1309 1228 531 
z
" transform="scale(0.015625)"/>
       </defs>
       <use xlink:href="#DejaVuSans-30"/>
       <use xlink:href="#DejaVuSans-2e" transform="translate(63.623047 0)"/>
       <use xlink:href="#DejaVuSans-32" transform="translate(95.410156 0)"/>
      </g>
     </g>
    </g>
    <g id="ytick_3">
     <g id="line2d_12">
      <g>
       <use xlink:href="#m88906b57a7" x="43.78125" y="158.012175" style="stroke: #000000; stroke-width: 0.8"/>
      </g>
     </g>
     <g id="text_12">
      <!-- 0.4 -->
      <g transform="translate(20.878125 161.811394) scale(0.1 -0.1)">
       <use xlink:href="#DejaVuSans-30"/>
       <use xlink:href="#DejaVuSans-2e" transform="translate(63.623047 0)"/>
       <use xlink:href="#DejaVuSans-34" transform="translate(95.410156 0)"/>
      </g>
     </g>
    </g>
    <g id="ytick_4">
     <g id="line2d_13">
      <g>
       <use xlink:href="#m88906b57a7" x="43.78125" y="112.940825" style="stroke: #000000; stroke-width: 0.8"/>
      </g>
     </g>
     <g id="text_13">
      <!-- 0.6 -->
      <g transform="translate(20.878125 116.740044) scale(0.1 -0.1)">
       <defs>
        <path id="DejaVuSans-36" d="M 2113 2584 
Q 1688 2584 1439 2293 
Q 1191 2003 1191 1497 
Q 1191 994 1439 701 
Q 1688 409 2113 409 
Q 2538 409 2786 701 
Q 3034 994 3034 1497 
Q 3034 2003 2786 2293 
Q 2538 2584 2113 2584 
z
M 3366 4563 
L 3366 3988 
Q 3128 4100 2886 4159 
Q 2644 4219 2406 4219 
Q 1781 4219 1451 3797 
Q 1122 3375 1075 2522 
Q 1259 2794 1537 2939 
Q 1816 3084 2150 3084 
Q 2853 3084 3261 2657 
Q 3669 2231 3669 1497 
Q 3669 778 3244 343 
Q 2819 -91 2113 -91 
Q 1303 -91 875 529 
Q 447 1150 447 2328 
Q 447 3434 972 4092 
Q 1497 4750 2381 4750 
Q 2619 4750 2861 4703 
Q 3103 4656 3366 4563 
z
" transform="scale(0.015625)"/>
       </defs>
       <use xlink:href="#DejaVuSans-30"/>
       <use xlink:href="#DejaVuSans-2e" transform="translate(63.623047 0)"/>
       <use xlink:href="#DejaVuSans-36" transform="translate(95.410156 0)"/>
      </g>
     </g>
    </g>
    <g id="ytick_5">
     <g id="line2d_14">
      <g>
       <use xlink:href="#m88906b57a7" x="43.78125" y="67.869475" style="stroke: #000000; stroke-width: 0.8"/>
      </g>
     </g>
     <g id="text_14">
      <!-- 0.8 -->
      <g transform="translate(20.878125 71.668694) scale(0.1 -0.1)">
       <use xlink:href="#DejaVuSans-30"/>
       <use xlink:href="#DejaVuSans-2e" transform="translate(63.623047 0)"/>
       <use xlink:href="#DejaVuSans-38" transform="translate(95.410156 0)"/>
      </g>
     </g>
    </g>
    <g id="ytick_6">
     <g id="line2d_15">
      <g>
       <use xlink:href="#m88906b57a7" x="43.78125" y="22.798125" style="stroke: #000000; stroke-width: 0.8"/>
      </g>
     </g>
     <g id="text_15">
      <!-- 1.0 -->
      <g transform="translate(20.878125 26.597344) scale(0.1 -0.1)">
       <use xlink:href="#DejaVuSans-31"/>
       <use xlink:href="#DejaVuSans-2e" transform="translate(63.623047 0)"/>
       <use xlink:href="#DejaVuSans-30" transform="translate(95.410156 0)"/>
      </g>
     </g>
    </g>
    <g id="text_16">
     <!-- udział (%) całkowitej attention z last-query -->
     <g transform="translate(14.798438 242.514781) rotate(-90) scale(0.1 -0.1)">
      <defs>
       <path id="DejaVuSans-142" d="M 622 4863 
L 1197 4863 
L 1197 2981 
L 1588 3263 
L 1825 2931 
L 1197 2491 
L 1197 0 
L 622 0 
L 622 2081 
L 238 1806 
L 6 2138 
L 622 2578 
L 622 4863 
z
" transform="scale(0.015625)"/>
       <path id="DejaVuSans-25" d="M 4653 2053 
Q 4381 2053 4226 1822 
Q 4072 1591 4072 1178 
Q 4072 772 4226 539 
Q 4381 306 4653 306 
Q 4919 306 5073 539 
Q 5228 772 5228 1178 
Q 5228 1588 5073 1820 
Q 4919 2053 4653 2053 
z
M 4653 2450 
Q 5147 2450 5437 2106 
Q 5728 1763 5728 1178 
Q 5728 594 5436 251 
Q 5144 -91 4653 -91 
Q 4153 -91 3862 251 
Q 3572 594 3572 1178 
Q 3572 1766 3864 2108 
Q 4156 2450 4653 2450 
z
M 1428 4353 
Q 1159 4353 1004 4120 
Q 850 3888 850 3481 
Q 850 3069 1003 2837 
Q 1156 2606 1428 2606 
Q 1700 2606 1854 2837 
Q 2009 3069 2009 3481 
Q 2009 3884 1853 4118 
Q 1697 4353 1428 4353 
z
M 4250 4750 
L 4750 4750 
L 1831 -91 
L 1331 -91 
L 4250 4750 
z
M 1428 4750 
Q 1922 4750 2215 4408 
Q 2509 4066 2509 3481 
Q 2509 2891 2217 2550 
Q 1925 2209 1428 2209 
Q 931 2209 642 2551 
Q 353 2894 353 3481 
Q 353 4063 643 4406 
Q 934 4750 1428 4750 
z
" transform="scale(0.015625)"/>
       <path id="DejaVuSans-2d" d="M 313 2009 
L 1997 2009 
L 1997 1497 
L 313 1497 
L 313 2009 
z
" transform="scale(0.015625)"/>
       <path id="DejaVuSans-71" d="M 947 1747 
Q 947 1113 1208 752 
Q 1469 391 1925 391 
Q 2381 391 2643 752 
Q 2906 1113 2906 1747 
Q 2906 2381 2643 2742 
Q 2381 3103 1925 3103 
Q 1469 3103 1208 2742 
Q 947 2381 947 1747 
z
M 2906 525 
Q 2725 213 2448 61 
Q 2172 -91 1784 -91 
Q 1150 -91 751 415 
Q 353 922 353 1747 
Q 353 2572 751 3078 
Q 1150 3584 1784 3584 
Q 2172 3584 2448 3432 
Q 2725 3281 2906 2969 
L 2906 3500 
L 3481 3500 
L 3481 -1331 
L 2906 -1331 
L 2906 525 
z
" transform="scale(0.015625)"/>
      </defs>
      <use xlink:href="#DejaVuSans-75"/>
      <use xlink:href="#DejaVuSans-64" transform="translate(63.378906 0)"/>
      <use xlink:href="#DejaVuSans-7a" transform="translate(126.855469 0)"/>
      <use xlink:href="#DejaVuSans-69" transform="translate(179.345703 0)"/>
      <use xlink:href="#DejaVuSans-61" transform="translate(207.128906 0)"/>
      <use xlink:href="#DejaVuSans-142" transform="translate(268.408203 0)"/>
      <use xlink:href="#DejaVuSans-20" transform="translate(296.826172 0)"/>
      <use xlink:href="#DejaVuSans-28" transform="translate(328.613281 0)"/>
      <use xlink:href="#DejaVuSans-25" transform="translate(367.626953 0)"/>
      <use xlink:href="#DejaVuSans-29" transform="translate(462.646484 0)"/>
      <use xlink:href="#DejaVuSans-20" transform="translate(501.660156 0)"/>
      <use xlink:href="#DejaVuSans-63" transform="translate(533.447266 0)"/>
      <use xlink:href="#DejaVuSans-61" transform="translate(588.427734 0)"/>
      <use xlink:href="#DejaVuSans-142" transform="translate(649.707031 0)"/>
      <use xlink:href="#DejaVuSans-6b" transform="translate(678.125 0)"/>
      <use xlink:href="#DejaVuSans-6f" transform="translate(732.410156 0)"/>
      <use xlink:href="#DejaVuSans-77" transform="translate(793.591797 0)"/>
      <use xlink:href="#DejaVuSans-69" transform="translate(875.378906 0)"/>
      <use xlink:href="#DejaVuSans-74" transform="translate(903.162109 0)"/>
      <use xlink:href="#DejaVuSans-65" transform="translate(942.371094 0)"/>
      <use xlink:href="#DejaVuSans-6a" transform="translate(1003.894531 0)"/>
      <use xlink:href="#DejaVuSans-20" transform="translate(1031.677734 0)"/>
      <use xlink:href="#DejaVuSans-61" transform="translate(1063.464844 0)"/>
      <use xlink:href="#DejaVuSans-74" transform="translate(1124.744141 0)"/>
      <use xlink:href="#DejaVuSans-74" transform="translate(1163.953125 0)"/>
      <use xlink:href="#DejaVuSans-65" transform="translate(1203.162109 0)"/>
      <use xlink:href="#DejaVuSans-6e" transform="translate(1264.685547 0)"/>
      <use xlink:href="#DejaVuSans-74" transform="translate(1328.064453 0)"/>
      <use xlink:href="#DejaVuSans-69" transform="translate(1367.273438 0)"/>
      <use xlink:href="#DejaVuSans-6f" transform="translate(1395.056641 0)"/>
      <use xlink:href="#DejaVuSans-6e" transform="translate(1456.238281 0)"/>
      <use xlink:href="#DejaVuSans-20" transform="translate(1519.617188 0)"/>
      <use xlink:href="#DejaVuSans-7a" transform="translate(1551.404297 0)"/>
      <use xlink:href="#DejaVuSans-20" transform="translate(1603.894531 0)"/>
      <use xlink:href="#DejaVuSans-6c" transform="translate(1635.681641 0)"/>
      <use xlink:href="#DejaVuSans-61" transform="translate(1663.464844 0)"/>
      <use xlink:href="#DejaVuSans-73" transform="translate(1724.744141 0)"/>
      <use xlink:href="#DejaVuSans-74" transform="translate(1776.84375 0)"/>
      <use xlink:href="#DejaVuSans-2d" transform="translate(1816.052734 0)"/>
      <use xlink:href="#DejaVuSans-71" transform="translate(1852.136719 0)"/>
      <use xlink:href="#DejaVuSans-75" transform="translate(1915.613281 0)"/>
      <use xlink:href="#DejaVuSans-65" transform="translate(1978.992188 0)"/>
      <use xlink:href="#DejaVuSans-72" transform="translate(2040.515625 0)"/>
      <use xlink:href="#DejaVuSans-79" transform="translate(2081.628906 0)"/>
     </g>
    </g>
   </g>
   <g id="line2d_16">
    <path d="M 43.78125 135.4765 
L 832.982035 135.4765 
" clip-path="url(#pd1bffdb19f)" style="fill: none; stroke-dasharray: 1,1.65; stroke-dashoffset: 0; stroke: #000000; stroke-opacity: 0.4"/>
   </g>
   <g id="patch_21">
    <path d="M 43.78125 248.154875 
L 43.78125 22.798125 
" style="fill: none; stroke: #000000; stroke-width: 0.8; stroke-linejoin: miter; stroke-linecap: square"/>
   </g>
   <g id="patch_22">
    <path d="M 832.982035 248.154875 
L 832.982035 22.798125 
" style="fill: none; stroke: #000000; stroke-width: 0.8; stroke-linejoin: miter; stroke-linecap: square"/>
   </g>
   <g id="patch_23">
    <path d="M 43.78125 248.154875 
L 832.982035 248.154875 
" style="fill: none; stroke: #000000; stroke-width: 0.8; stroke-linejoin: miter; stroke-linecap: square"/>
   </g>
   <g id="patch_24">
    <path d="M 43.78125 22.798125 
L 832.982035 22.798125 
" style="fill: none; stroke: #000000; stroke-width: 0.8; stroke-linejoin: miter; stroke-linecap: square"/>
   </g>
   <g id="text_17">
    <!-- 14% -->
    <g style="fill: #ffffff" transform="translate(101.494444 41.352219) scale(0.09 -0.09)">
     <defs>
      <path id="DejaVuSans-Bold-31" d="M 750 831 
L 1813 831 
L 1813 3847 
L 722 3622 
L 722 4441 
L 1806 4666 
L 2950 4666 
L 2950 831 
L 4013 831 
L 4013 0 
L 750 0 
L 750 831 
z
" transform="scale(0.015625)"/>
      <path id="DejaVuSans-Bold-34" d="M 2356 3675 
L 1038 1722 
L 2356 1722 
L 2356 3675 
z
M 2156 4666 
L 3494 4666 
L 3494 1722 
L 4159 1722 
L 4159 850 
L 3494 850 
L 3494 0 
L 2356 0 
L 2356 850 
L 288 850 
L 288 1881 
L 2156 4666 
z
" transform="scale(0.015625)"/>
      <path id="DejaVuSans-Bold-25" d="M 4959 1925 
Q 4738 1925 4616 1733 
Q 4494 1541 4494 1184 
Q 4494 825 4614 633 
Q 4734 441 4959 441 
Q 5184 441 5303 633 
Q 5422 825 5422 1184 
Q 5422 1541 5301 1733 
Q 5181 1925 4959 1925 
z
M 4959 2450 
Q 5541 2450 5875 2112 
Q 6209 1775 6209 1184 
Q 6209 594 5875 251 
Q 5541 -91 4959 -91 
Q 4378 -91 4042 251 
Q 3706 594 3706 1184 
Q 3706 1772 4042 2111 
Q 4378 2450 4959 2450 
z
M 2094 -91 
L 1403 -91 
L 4319 4750 
L 5013 4750 
L 2094 -91 
z
M 1453 4750 
Q 2034 4750 2367 4411 
Q 2700 4072 2700 3481 
Q 2700 2891 2367 2550 
Q 2034 2209 1453 2209 
Q 872 2209 539 2550 
Q 206 2891 206 3481 
Q 206 4072 539 4411 
Q 872 4750 1453 4750 
z
M 1453 4225 
Q 1228 4225 1106 4031 
Q 984 3838 984 3481 
Q 984 3122 1106 2926 
Q 1228 2731 1453 2731 
Q 1678 2731 1798 2926 
Q 1919 3122 1919 3481 
Q 1919 3838 1797 4031 
Q 1675 4225 1453 4225 
z
" transform="scale(0.015625)"/>
     </defs>
     <use xlink:href="#DejaVuSans-Bold-31"/>
     <use xlink:href="#DejaVuSans-Bold-34" transform="translate(69.580078 0)"/>
     <use xlink:href="#DejaVuSans-Bold-25" transform="translate(139.160156 0)"/>
    </g>
   </g>
   <g id="text_18">
    <!-- 86% -->
    <g style="fill: #ffffff" transform="translate(101.494444 154.030594) scale(0.09 -0.09)">
     <defs>
      <path id="DejaVuSans-Bold-38" d="M 2228 2088 
Q 1891 2088 1709 1903 
Q 1528 1719 1528 1375 
Q 1528 1031 1709 848 
Q 1891 666 2228 666 
Q 2563 666 2741 848 
Q 2919 1031 2919 1375 
Q 2919 1722 2741 1905 
Q 2563 2088 2228 2088 
z
M 1350 2484 
Q 925 2613 709 2878 
Q 494 3144 494 3541 
Q 494 4131 934 4440 
Q 1375 4750 2228 4750 
Q 3075 4750 3515 4442 
Q 3956 4134 3956 3541 
Q 3956 3144 3739 2878 
Q 3522 2613 3097 2484 
Q 3572 2353 3814 2058 
Q 4056 1763 4056 1313 
Q 4056 619 3595 264 
Q 3134 -91 2228 -91 
Q 1319 -91 855 264 
Q 391 619 391 1313 
Q 391 1763 633 2058 
Q 875 2353 1350 2484 
z
M 1631 3419 
Q 1631 3141 1786 2991 
Q 1941 2841 2228 2841 
Q 2509 2841 2662 2991 
Q 2816 3141 2816 3419 
Q 2816 3697 2662 3845 
Q 2509 3994 2228 3994 
Q 1941 3994 1786 3844 
Q 1631 3694 1631 3419 
z
" transform="scale(0.015625)"/>
      <path id="DejaVuSans-Bold-36" d="M 2316 2303 
Q 2000 2303 1842 2098 
Q 1684 1894 1684 1484 
Q 1684 1075 1842 870 
Q 2000 666 2316 666 
Q 2634 666 2792 870 
Q 2950 1075 2950 1484 
Q 2950 1894 2792 2098 
Q 2634 2303 2316 2303 
z
M 3803 4544 
L 3803 3681 
Q 3506 3822 3243 3889 
Q 2981 3956 2731 3956 
Q 2194 3956 1894 3657 
Q 1594 3359 1544 2772 
Q 1750 2925 1990 3001 
Q 2231 3078 2516 3078 
Q 3231 3078 3670 2659 
Q 4109 2241 4109 1563 
Q 4109 813 3618 361 
Q 3128 -91 2303 -91 
Q 1394 -91 895 523 
Q 397 1138 397 2266 
Q 397 3422 980 4083 
Q 1563 4744 2578 4744 
Q 2900 4744 3203 4694 
Q 3506 4644 3803 4544 
z
" transform="scale(0.015625)"/>
     </defs>
     <use xlink:href="#DejaVuSans-Bold-38"/>
     <use xlink:href="#DejaVuSans-Bold-36" transform="translate(69.580078 0)"/>
     <use xlink:href="#DejaVuSans-Bold-25" transform="translate(139.160156 0)"/>
    </g>
   </g>
   <g id="text_19">
    <!-- 13% -->
    <g style="fill: #ffffff" transform="translate(183.023451 39.714543) scale(0.09 -0.09)">
     <defs>
      <path id="DejaVuSans-Bold-33" d="M 2981 2516 
Q 3453 2394 3698 2092 
Q 3944 1791 3944 1325 
Q 3944 631 3412 270 
Q 2881 -91 1863 -91 
Q 1503 -91 1142 -33 
Q 781 25 428 141 
L 428 1069 
Q 766 900 1098 814 
Q 1431 728 1753 728 
Q 2231 728 2486 893 
Q 2741 1059 2741 1369 
Q 2741 1688 2480 1852 
Q 2219 2016 1709 2016 
L 1228 2016 
L 1228 2791 
L 1734 2791 
Q 2188 2791 2409 2933 
Q 2631 3075 2631 3366 
Q 2631 3634 2415 3781 
Q 2200 3928 1806 3928 
Q 1516 3928 1219 3862 
Q 922 3797 628 3669 
L 628 4550 
Q 984 4650 1334 4700 
Q 1684 4750 2022 4750 
Q 2931 4750 3382 4451 
Q 3834 4153 3834 3553 
Q 3834 3144 3618 2883 
Q 3403 2622 2981 2516 
z
" transform="scale(0.015625)"/>
     </defs>
     <use xlink:href="#DejaVuSans-Bold-31"/>
     <use xlink:href="#DejaVuSans-Bold-33" transform="translate(69.580078 0)"/>
     <use xlink:href="#DejaVuSans-Bold-25" transform="translate(139.160156 0)"/>
    </g>
   </g>
   <g id="text_20">
    <!-- 87% -->
    <g style="fill: #ffffff" transform="translate(183.023451 152.392918) scale(0.09 -0.09)">
     <defs>
      <path id="DejaVuSans-Bold-37" d="M 428 4666 
L 3944 4666 
L 3944 3988 
L 2125 0 
L 953 0 
L 2675 3781 
L 428 3781 
L 428 4666 
z
" transform="scale(0.015625)"/>
     </defs>
     <use xlink:href="#DejaVuSans-Bold-38"/>
     <use xlink:href="#DejaVuSans-Bold-37" transform="translate(69.580078 0)"/>
     <use xlink:href="#DejaVuSans-Bold-25" transform="translate(139.160156 0)"/>
    </g>
   </g>
   <g id="text_21">
    <!-- 13% -->
    <g style="fill: #ffffff" transform="translate(264.552457 40.429379) scale(0.09 -0.09)">
     <use xlink:href="#DejaVuSans-Bold-31"/>
     <use xlink:href="#DejaVuSans-Bold-33" transform="translate(69.580078 0)"/>
     <use xlink:href="#DejaVuSans-Bold-25" transform="translate(139.160156 0)"/>
    </g>
   </g>
   <g id="text_22">
    <!-- 87% -->
    <g style="fill: #ffffff" transform="translate(264.552457 153.107754) scale(0.09 -0.09)">
     <use xlink:href="#DejaVuSans-Bold-38"/>
     <use xlink:href="#DejaVuSans-Bold-37" transform="translate(69.580078 0)"/>
     <use xlink:href="#DejaVuSans-Bold-25" transform="translate(139.160156 0)"/>
    </g>
   </g>
   <g id="text_23">
    <!-- 11% -->
    <g style="fill: #ffffff" transform="translate(346.081464 37.833668) scale(0.09 -0.09)">
     <use xlink:href="#DejaVuSans-Bold-31"/>
     <use xlink:href="#DejaVuSans-Bold-31" transform="translate(69.580078 0)"/>
     <use xlink:href="#DejaVuSans-Bold-25" transform="translate(139.160156 0)"/>
    </g>
   </g>
   <g id="text_24">
    <!-- 89% -->
    <g style="fill: #ffffff" transform="translate(346.081464 150.512043) scale(0.09 -0.09)">
     <defs>
      <path id="DejaVuSans-Bold-39" d="M 641 103 
L 641 966 
Q 928 831 1190 764 
Q 1453 697 1709 697 
Q 2247 697 2547 995 
Q 2847 1294 2900 1881 
Q 2688 1725 2447 1647 
Q 2206 1569 1925 1569 
Q 1209 1569 770 1986 
Q 331 2403 331 3084 
Q 331 3838 820 4291 
Q 1309 4744 2131 4744 
Q 3044 4744 3544 4128 
Q 4044 3513 4044 2388 
Q 4044 1231 3459 570 
Q 2875 -91 1856 -91 
Q 1528 -91 1228 -42 
Q 928 6 641 103 
z
M 2125 2350 
Q 2441 2350 2600 2554 
Q 2759 2759 2759 3169 
Q 2759 3575 2600 3781 
Q 2441 3988 2125 3988 
Q 1809 3988 1650 3781 
Q 1491 3575 1491 3169 
Q 1491 2759 1650 2554 
Q 1809 2350 2125 2350 
z
" transform="scale(0.015625)"/>
     </defs>
     <use xlink:href="#DejaVuSans-Bold-38"/>
     <use xlink:href="#DejaVuSans-Bold-39" transform="translate(69.580078 0)"/>
     <use xlink:href="#DejaVuSans-Bold-25" transform="translate(139.160156 0)"/>
    </g>
   </g>
   <g id="text_25">
    <!-- 10% -->
    <g style="fill: #ffffff" transform="translate(427.610471 36.770318) scale(0.09 -0.09)">
     <defs>
      <path id="DejaVuSans-Bold-30" d="M 2944 2338 
Q 2944 3213 2780 3570 
Q 2616 3928 2228 3928 
Q 1841 3928 1675 3570 
Q 1509 3213 1509 2338 
Q 1509 1453 1675 1090 
Q 1841 728 2228 728 
Q 2613 728 2778 1090 
Q 2944 1453 2944 2338 
z
M 4147 2328 
Q 4147 1169 3647 539 
Q 3147 -91 2228 -91 
Q 1306 -91 806 539 
Q 306 1169 306 2328 
Q 306 3491 806 4120 
Q 1306 4750 2228 4750 
Q 3147 4750 3647 4120 
Q 4147 3491 4147 2328 
z
" transform="scale(0.015625)"/>
     </defs>
     <use xlink:href="#DejaVuSans-Bold-31"/>
     <use xlink:href="#DejaVuSans-Bold-30" transform="translate(69.580078 0)"/>
     <use xlink:href="#DejaVuSans-Bold-25" transform="translate(139.160156 0)"/>
    </g>
   </g>
   <g id="text_26">
    <!-- 90% -->
    <g style="fill: #ffffff" transform="translate(427.610471 149.448693) scale(0.09 -0.09)">
     <use xlink:href="#DejaVuSans-Bold-39"/>
     <use xlink:href="#DejaVuSans-Bold-30" transform="translate(69.580078 0)"/>
     <use xlink:href="#DejaVuSans-Bold-25" transform="translate(139.160156 0)"/>
    </g>
   </g>
   <g id="text_27">
    <!-- 7% -->
    <g style="fill: #ffffff" transform="translate(512.270493 32.731223) scale(0.09 -0.09)">
     <use xlink:href="#DejaVuSans-Bold-37"/>
     <use xlink:href="#DejaVuSans-Bold-25" transform="translate(69.580078 0)"/>
    </g>
   </g>
   <g id="text_28">
    <!-- 93% -->
    <g style="fill: #ffffff" transform="translate(509.139477 145.409598) scale(0.09 -0.09)">
     <use xlink:href="#DejaVuSans-Bold-39"/>
     <use xlink:href="#DejaVuSans-Bold-33" transform="translate(69.580078 0)"/>
     <use xlink:href="#DejaVuSans-Bold-25" transform="translate(139.160156 0)"/>
    </g>
   </g>
   <g id="text_29">
    <!-- 16% -->
    <g style="fill: #ffffff" transform="translate(590.668484 42.85983) scale(0.09 -0.09)">
     <use xlink:href="#DejaVuSans-Bold-31"/>
     <use xlink:href="#DejaVuSans-Bold-36" transform="translate(69.580078 0)"/>
     <use xlink:href="#DejaVuSans-Bold-25" transform="translate(139.160156 0)"/>
    </g>
   </g>
   <g id="text_30">
    <!-- 84% -->
    <g style="fill: #ffffff" transform="translate(590.668484 155.538205) scale(0.09 -0.09)">
     <use xlink:href="#DejaVuSans-Bold-38"/>
     <use xlink:href="#DejaVuSans-Bold-34" transform="translate(69.580078 0)"/>
     <use xlink:href="#DejaVuSans-Bold-25" transform="translate(139.160156 0)"/>
    </g>
   </g>
   <g id="text_31">
    <!-- 19% -->
    <g style="fill: #ffffff" transform="translate(672.197491 46.14125) scale(0.09 -0.09)">
     <use xlink:href="#DejaVuSans-Bold-31"/>
     <use xlink:href="#DejaVuSans-Bold-39" transform="translate(69.580078 0)"/>
     <use xlink:href="#DejaVuSans-Bold-25" transform="translate(139.160156 0)"/>
    </g>
   </g>
   <g id="text_32">
    <!-- 81% -->
    <g style="fill: #ffffff" transform="translate(672.197491 158.819625) scale(0.09 -0.09)">
     <use xlink:href="#DejaVuSans-Bold-38"/>
     <use xlink:href="#DejaVuSans-Bold-31" transform="translate(69.580078 0)"/>
     <use xlink:href="#DejaVuSans-Bold-25" transform="translate(139.160156 0)"/>
    </g>
   </g>
   <g id="text_33">
    <!-- 18% -->
    <g style="fill: #ffffff" transform="translate(753.726498 45.216396) scale(0.09 -0.09)">
     <use xlink:href="#DejaVuSans-Bold-31"/>
     <use xlink:href="#DejaVuSans-Bold-38" transform="translate(69.580078 0)"/>
     <use xlink:href="#DejaVuSans-Bold-25" transform="translate(139.160156 0)"/>
    </g>
   </g>
   <g id="text_34">
    <!-- 82% -->
    <g style="fill: #ffffff" transform="translate(753.726498 157.894771) scale(0.09 -0.09)">
     <defs>
      <path id="DejaVuSans-Bold-32" d="M 1844 884 
L 3897 884 
L 3897 0 
L 506 0 
L 506 884 
L 2209 2388 
Q 2438 2594 2547 2791 
Q 2656 2988 2656 3200 
Q 2656 3528 2436 3728 
Q 2216 3928 1850 3928 
Q 1569 3928 1234 3808 
Q 900 3688 519 3450 
L 519 4475 
Q 925 4609 1322 4679 
Q 1719 4750 2100 4750 
Q 2938 4750 3402 4381 
Q 3866 4013 3866 3353 
Q 3866 2972 3669 2642 
Q 3472 2313 2841 1759 
L 1844 884 
z
" transform="scale(0.015625)"/>
     </defs>
     <use xlink:href="#DejaVuSans-Bold-38"/>
     <use xlink:href="#DejaVuSans-Bold-32" transform="translate(69.580078 0)"/>
     <use xlink:href="#DejaVuSans-Bold-25" transform="translate(139.160156 0)"/>
    </g>
   </g>
   <g id="text_35">
    <!-- Bielik — gdzie idzie uwaga? structural (header/markery roli) vs content (merytoryczna treść) -->
    <g transform="translate(160.15883 16.798125) scale(0.12 -0.12)">
     <defs>
      <path id="DejaVuSans-2014" d="M 313 1978 
L 6088 1978 
L 6088 1528 
L 313 1528 
L 313 1978 
z
" transform="scale(0.015625)"/>
      <path id="DejaVuSans-2f" d="M 1625 4666 
L 2156 4666 
L 531 -594 
L 0 -594 
L 1625 4666 
z
" transform="scale(0.015625)"/>
      <path id="DejaVuSans-107" d="M 3122 3366 
L 3122 2828 
Q 2878 2963 2633 3030 
Q 2388 3097 2138 3097 
Q 1578 3097 1268 2742 
Q 959 2388 959 1747 
Q 959 1106 1268 751 
Q 1578 397 2138 397 
Q 2388 397 2633 464 
Q 2878 531 3122 666 
L 3122 134 
Q 2881 22 2623 -34 
Q 2366 -91 2075 -91 
Q 1284 -91 818 406 
Q 353 903 353 1747 
Q 353 2603 823 3093 
Q 1294 3584 2113 3584 
Q 2378 3584 2631 3529 
Q 2884 3475 3122 3366 
z
M 2466 5119 
L 3088 5119 
L 2070 3944 
L 1591 3944 
L 2466 5119 
z
" transform="scale(0.015625)"/>
     </defs>
     <use xlink:href="#DejaVuSans-42"/>
     <use xlink:href="#DejaVuSans-69" transform="translate(68.603516 0)"/>
     <use xlink:href="#DejaVuSans-65" transform="translate(96.386719 0)"/>
     <use xlink:href="#DejaVuSans-6c" transform="translate(157.910156 0)"/>
     <use xlink:href="#DejaVuSans-69" transform="translate(185.693359 0)"/>
     <use xlink:href="#DejaVuSans-6b" transform="translate(213.476562 0)"/>
     <use xlink:href="#DejaVuSans-20" transform="translate(271.386719 0)"/>
     <use xlink:href="#DejaVuSans-2014" transform="translate(303.173828 0)"/>
     <use xlink:href="#DejaVuSans-20" transform="translate(403.173828 0)"/>
     <use xlink:href="#DejaVuSans-67" transform="translate(434.960938 0)"/>
     <use xlink:href="#DejaVuSans-64" transform="translate(498.4375 0)"/>
     <use xlink:href="#DejaVuSans-7a" transform="translate(561.914062 0)"/>
     <use xlink:href="#DejaVuSans-69" transform="translate(614.404297 0)"/>
     <use xlink:href="#DejaVuSans-65" transform="translate(642.1875 0)"/>
     <use xlink:href="#DejaVuSans-20" transform="translate(703.710938 0)"/>
     <use xlink:href="#DejaVuSans-69" transform="translate(735.498047 0)"/>
     <use xlink:href="#DejaVuSans-64" transform="translate(763.28125 0)"/>
     <use xlink:href="#DejaVuSans-7a" transform="translate(826.757812 0)"/>
     <use xlink:href="#DejaVuSans-69" transform="translate(879.248047 0)"/>
     <use xlink:href="#DejaVuSans-65" transform="translate(907.03125 0)"/>
     <use xlink:href="#DejaVuSans-20" transform="translate(968.554688 0)"/>
     <use xlink:href="#DejaVuSans-75" transform="translate(1000.341797 0)"/>
     <use xlink:href="#DejaVuSans-77" transform="translate(1063.720703 0)"/>
     <use xlink:href="#DejaVuSans-61" transform="translate(1145.507812 0)"/>
     <use xlink:href="#DejaVuSans-67" transform="translate(1206.787109 0)"/>
     <use xlink:href="#DejaVuSans-61" transform="translate(1270.263672 0)"/>
     <use xlink:href="#DejaVuSans-3f" transform="translate(1331.542969 0)"/>
     <use xlink:href="#DejaVuSans-20" transform="translate(1384.619141 0)"/>
     <use xlink:href="#DejaVuSans-73" transform="translate(1416.40625 0)"/>
     <use xlink:href="#DejaVuSans-74" transform="translate(1468.505859 0)"/>
     <use xlink:href="#DejaVuSans-72" transform="translate(1507.714844 0)"/>
     <use xlink:href="#DejaVuSans-75" transform="translate(1548.828125 0)"/>
     <use xlink:href="#DejaVuSans-63" transform="translate(1612.207031 0)"/>
     <use xlink:href="#DejaVuSans-74" transform="translate(1667.1875 0)"/>
     <use xlink:href="#DejaVuSans-75" transform="translate(1706.396484 0)"/>
     <use xlink:href="#DejaVuSans-72" transform="translate(1769.775391 0)"/>
     <use xlink:href="#DejaVuSans-61" transform="translate(1810.888672 0)"/>
     <use xlink:href="#DejaVuSans-6c" transform="translate(1872.167969 0)"/>
     <use xlink:href="#DejaVuSans-20" transform="translate(1899.951172 0)"/>
     <use xlink:href="#DejaVuSans-28" transform="translate(1931.738281 0)"/>
     <use xlink:href="#DejaVuSans-68" transform="translate(1970.751953 0)"/>
     <use xlink:href="#DejaVuSans-65" transform="translate(2034.130859 0)"/>
     <use xlink:href="#DejaVuSans-61" transform="translate(2095.654297 0)"/>
     <use xlink:href="#DejaVuSans-64" transform="translate(2156.933594 0)"/>
     <use xlink:href="#DejaVuSans-65" transform="translate(2220.410156 0)"/>
     <use xlink:href="#DejaVuSans-72" transform="translate(2281.933594 0)"/>
     <use xlink:href="#DejaVuSans-2f" transform="translate(2323.046875 0)"/>
     <use xlink:href="#DejaVuSans-6d" transform="translate(2356.738281 0)"/>
     <use xlink:href="#DejaVuSans-61" transform="translate(2454.150391 0)"/>
     <use xlink:href="#DejaVuSans-72" transform="translate(2515.429688 0)"/>
     <use xlink:href="#DejaVuSans-6b" transform="translate(2556.542969 0)"/>
     <use xlink:href="#DejaVuSans-65" transform="translate(2610.828125 0)"/>
     <use xlink:href="#DejaVuSans-72" transform="translate(2672.351562 0)"/>
     <use xlink:href="#DejaVuSans-79" transform="translate(2713.464844 0)"/>
     <use xlink:href="#DejaVuSans-20" transform="translate(2772.644531 0)"/>
     <use xlink:href="#DejaVuSans-72" transform="translate(2804.431641 0)"/>
     <use xlink:href="#DejaVuSans-6f" transform="translate(2843.294922 0)"/>
     <use xlink:href="#DejaVuSans-6c" transform="translate(2904.476562 0)"/>
     <use xlink:href="#DejaVuSans-69" transform="translate(2932.259766 0)"/>
     <use xlink:href="#DejaVuSans-29" transform="translate(2960.042969 0)"/>
     <use xlink:href="#DejaVuSans-20" transform="translate(2999.056641 0)"/>
     <use xlink:href="#DejaVuSans-76" transform="translate(3030.84375 0)"/>
     <use xlink:href="#DejaVuSans-73" transform="translate(3090.023438 0)"/>
     <use xlink:href="#DejaVuSans-20" transform="translate(3142.123047 0)"/>
     <use xlink:href="#DejaVuSans-63" transform="translate(3173.910156 0)"/>
     <use xlink:href="#DejaVuSans-6f" transform="translate(3228.890625 0)"/>
     <use xlink:href="#DejaVuSans-6e" transform="translate(3290.072266 0)"/>
     <use xlink:href="#DejaVuSans-74" transform="translate(3353.451172 0)"/>
     <use xlink:href="#DejaVuSans-65" transform="translate(3392.660156 0)"/>
     <use xlink:href="#DejaVuSans-6e" transform="translate(3454.183594 0)"/>
     <use xlink:href="#DejaVuSans-74" transform="translate(3517.5625 0)"/>
     <use xlink:href="#DejaVuSans-20" transform="translate(3556.771484 0)"/>
     <use xlink:href="#DejaVuSans-28" transform="translate(3588.558594 0)"/>
     <use xlink:href="#DejaVuSans-6d" transform="translate(3627.572266 0)"/>
     <use xlink:href="#DejaVuSans-65" transform="translate(3724.984375 0)"/>
     <use xlink:href="#DejaVuSans-72" transform="translate(3786.507812 0)"/>
     <use xlink:href="#DejaVuSans-79" transform="translate(3827.621094 0)"/>
     <use xlink:href="#DejaVuSans-74" transform="translate(3886.800781 0)"/>
     <use xlink:href="#DejaVuSans-6f" transform="translate(3926.009766 0)"/>
     <use xlink:href="#DejaVuSans-72" transform="translate(3987.191406 0)"/>
     <use xlink:href="#DejaVuSans-79" transform="translate(4028.304688 0)"/>
     <use xlink:href="#DejaVuSans-63" transform="translate(4087.484375 0)"/>
     <use xlink:href="#DejaVuSans-7a" transform="translate(4142.464844 0)"/>
     <use xlink:href="#DejaVuSans-6e" transform="translate(4194.955078 0)"/>
     <use xlink:href="#DejaVuSans-61" transform="translate(4258.333984 0)"/>
     <use xlink:href="#DejaVuSans-20" transform="translate(4319.613281 0)"/>
     <use xlink:href="#DejaVuSans-74" transform="translate(4351.400391 0)"/>
     <use xlink:href="#DejaVuSans-72" transform="translate(4390.609375 0)"/>
     <use xlink:href="#DejaVuSans-65" transform="translate(4429.472656 0)"/>
     <use xlink:href="#DejaVuSans-15b" transform="translate(4490.996094 0)"/>
     <use xlink:href="#DejaVuSans-107" transform="translate(4543.095703 0)"/>
     <use xlink:href="#DejaVuSans-29" transform="translate(4598.076172 0)"/>
    </g>
   </g>
   <g id="legend_1">
    <g id="patch_25">
     <path d="M 228.969143 304.914637 
L 647.794143 304.914637 
Q 649.794143 304.914637 649.794143 302.914637 
L 649.794143 288.958387 
Q 649.794143 286.958387 647.794143 286.958387 
L 228.969143 286.958387 
Q 226.969143 286.958387 226.969143 288.958387 
L 226.969143 302.914637 
Q 226.969143 304.914637 228.969143 304.914637 
z
" style="fill: #ffffff; opacity: 0.8; stroke: #cccccc; stroke-linejoin: miter"/>
    </g>
    <g id="patch_26">
     <path d="M 230.969143 298.556825 
L 250.969143 298.556825 
L 250.969143 291.556825 
L 230.969143 291.556825 
z
" style="fill: #8c564b"/>
    </g>
    <g id="text_36">
     <!-- structural (header + ast_tail + last_query) -->
     <g transform="translate(258.969143 298.556825) scale(0.1 -0.1)">
      <defs>
       <path id="DejaVuSans-2b" d="M 2944 4013 
L 2944 2272 
L 4684 2272 
L 4684 1741 
L 2944 1741 
L 2944 0 
L 2419 0 
L 2419 1741 
L 678 1741 
L 678 2272 
L 2419 2272 
L 2419 4013 
L 2944 4013 
z
" transform="scale(0.015625)"/>
      </defs>
      <use xlink:href="#DejaVuSans-73"/>
      <use xlink:href="#DejaVuSans-74" transform="translate(52.099609 0)"/>
      <use xlink:href="#DejaVuSans-72" transform="translate(91.308594 0)"/>
      <use xlink:href="#DejaVuSans-75" transform="translate(132.421875 0)"/>
      <use xlink:href="#DejaVuSans-63" transform="translate(195.800781 0)"/>
      <use xlink:href="#DejaVuSans-74" transform="translate(250.78125 0)"/>
      <use xlink:href="#DejaVuSans-75" transform="translate(289.990234 0)"/>
      <use xlink:href="#DejaVuSans-72" transform="translate(353.369141 0)"/>
      <use xlink:href="#DejaVuSans-61" transform="translate(394.482422 0)"/>
      <use xlink:href="#DejaVuSans-6c" transform="translate(455.761719 0)"/>
      <use xlink:href="#DejaVuSans-20" transform="translate(483.544922 0)"/>
      <use xlink:href="#DejaVuSans-28" transform="translate(515.332031 0)"/>
      <use xlink:href="#DejaVuSans-68" transform="translate(554.345703 0)"/>
      <use xlink:href="#DejaVuSans-65" transform="translate(617.724609 0)"/>
      <use xlink:href="#DejaVuSans-61" transform="translate(679.248047 0)"/>
      <use xlink:href="#DejaVuSans-64" transform="translate(740.527344 0)"/>
      <use xlink:href="#DejaVuSans-65" transform="translate(804.003906 0)"/>
      <use xlink:href="#DejaVuSans-72" transform="translate(865.527344 0)"/>
      <use xlink:href="#DejaVuSans-20" transform="translate(906.640625 0)"/>
      <use xlink:href="#DejaVuSans-2b" transform="translate(938.427734 0)"/>
      <use xlink:href="#DejaVuSans-20" transform="translate(1022.216797 0)"/>
      <use xlink:href="#DejaVuSans-61" transform="translate(1054.003906 0)"/>
      <use xlink:href="#DejaVuSans-73" transform="translate(1115.283203 0)"/>
      <use xlink:href="#DejaVuSans-74" transform="translate(1167.382812 0)"/>
      <use xlink:href="#DejaVuSans-5f" transform="translate(1206.591797 0)"/>
      <use xlink:href="#DejaVuSans-74" transform="translate(1256.591797 0)"/>
      <use xlink:href="#DejaVuSans-61" transform="translate(1295.800781 0)"/>
      <use xlink:href="#DejaVuSans-69" transform="translate(1357.080078 0)"/>
      <use xlink:href="#DejaVuSans-6c" transform="translate(1384.863281 0)"/>
      <use xlink:href="#DejaVuSans-20" transform="translate(1412.646484 0)"/>
      <use xlink:href="#DejaVuSans-2b" transform="translate(1444.433594 0)"/>
      <use xlink:href="#DejaVuSans-20" transform="translate(1528.222656 0)"/>
      <use xlink:href="#DejaVuSans-6c" transform="translate(1560.009766 0)"/>
      <use xlink:href="#DejaVuSans-61" transform="translate(1587.792969 0)"/>
      <use xlink:href="#DejaVuSans-73" transform="translate(1649.072266 0)"/>
      <use xlink:href="#DejaVuSans-74" transform="translate(1701.171875 0)"/>
      <use xlink:href="#DejaVuSans-5f" transform="translate(1740.380859 0)"/>
      <use xlink:href="#DejaVuSans-71" transform="translate(1790.380859 0)"/>
      <use xlink:href="#DejaVuSans-75" transform="translate(1853.857422 0)"/>
      <use xlink:href="#DejaVuSans-65" transform="translate(1917.236328 0)"/>
      <use xlink:href="#DejaVuSans-72" transform="translate(1978.759766 0)"/>
      <use xlink:href="#DejaVuSans-79" transform="translate(2019.873047 0)"/>
      <use xlink:href="#DejaVuSans-29" transform="translate(2079.052734 0)"/>
     </g>
    </g>
    <g id="patch_27">
     <path d="M 490.772268 298.556825 
L 510.772268 298.556825 
L 510.772268 291.556825 
L 490.772268 291.556825 
z
" style="fill: #ff7f0e"/>
    </g>
    <g id="text_37">
     <!-- content (start+mid+end) -->
     <g transform="translate(518.772268 298.556825) scale(0.1 -0.1)">
      <use xlink:href="#DejaVuSans-63"/>
      <use xlink:href="#DejaVuSans-6f" transform="translate(54.980469 0)"/>
      <use xlink:href="#DejaVuSans-6e" transform="translate(116.162109 0)"/>
      <use xlink:href="#DejaVuSans-74" transform="translate(179.541016 0)"/>
      <use xlink:href="#DejaVuSans-65" transform="translate(218.75 0)"/>
      <use xlink:href="#DejaVuSans-6e" transform="translate(280.273438 0)"/>
      <use xlink:href="#DejaVuSans-74" transform="translate(343.652344 0)"/>
      <use xlink:href="#DejaVuSans-20" transform="translate(382.861328 0)"/>
      <use xlink:href="#DejaVuSans-28" transform="translate(414.648438 0)"/>
      <use xlink:href="#DejaVuSans-73" transform="translate(453.662109 0)"/>
      <use xlink:href="#DejaVuSans-74" transform="translate(505.761719 0)"/>
      <use xlink:href="#DejaVuSans-61" transform="translate(544.970703 0)"/>
      <use xlink:href="#DejaVuSans-72" transform="translate(606.25 0)"/>
      <use xlink:href="#DejaVuSans-74" transform="translate(647.363281 0)"/>
      <use xlink:href="#DejaVuSans-2b" transform="translate(686.572266 0)"/>
      <use xlink:href="#DejaVuSans-6d" transform="translate(770.361328 0)"/>
      <use xlink:href="#DejaVuSans-69" transform="translate(867.773438 0)"/>
      <use xlink:href="#DejaVuSans-64" transform="translate(895.556641 0)"/>
      <use xlink:href="#DejaVuSans-2b" transform="translate(959.033203 0)"/>
      <use xlink:href="#DejaVuSans-65" transform="translate(1042.822266 0)"/>
      <use xlink:href="#DejaVuSans-6e" transform="translate(1104.345703 0)"/>
      <use xlink:href="#DejaVuSans-64" transform="translate(1167.724609 0)"/>
      <use xlink:href="#DejaVuSans-29" transform="translate(1231.201172 0)"/>
     </g>
    </g>
   </g>
  </g>
 </g>
 <defs>
  <clipPath id="pd1bffdb19f">
   <rect x="43.78125" y="22.798125" width="789.200785" height="225.35675"/>
  </clipPath>
 </defs>
</svg>
